<svg width="22" height="14" viewBox="0 0 22 14" fill="none" xmlns="http://www.w3.org/2000/svg">
<path d="M16.1631 9.9166C15.6664 9.9166 15.2623 9.50923 15.2623 9.00877C15.2623 8.5083 15.6664 8.10122 16.1631 8.10122C16.6598 8.10122 17.0638 8.5083 17.0638 9.00877C17.0638 9.50923 16.6598 9.9166 16.1631 9.9166ZM6.20678 9.9166C5.71007 9.9166 5.30605 9.50923 5.30605 9.00877C5.30605 8.5083 5.71007 8.10122 6.20678 8.10122C6.70348 8.10122 7.10751 8.5083 7.10751 9.00877C7.10751 9.50923 6.70348 9.9166 6.20678 9.9166ZM16.4861 4.44952L18.2864 1.30802C18.3896 1.12745 18.3282 0.896807 18.1493 0.792532C17.9704 0.688551 17.7412 0.750409 17.6377 0.930681L15.8149 4.11196C14.4209 3.47099 12.8554 3.11398 11.1849 3.11398C9.51442 3.11398 7.94889 3.47099 6.55496 4.11196L4.73216 0.930681C4.62867 0.750409 4.39947 0.688551 4.22055 0.792532C4.04163 0.896807 3.97995 1.12745 4.08344 1.30802L5.88372 4.44952C2.79241 6.14355 0.678138 9.29685 0.368835 13.0222H22.001C21.6914 9.29684 19.5771 6.14355 16.4861 4.44952Z" fill="#3DDB85"/>
</svg>
