<svg width="28" height="17" viewBox="0 0 28 17" fill="none" xmlns="http://www.w3.org/2000/svg">
<path d="M8.09429 6.80508C8.08541 7.072 8.12092 7.33891 8.19195 7.59693C8.27186 7.81936 8.36953 8.0329 8.47607 8.23753C8.51159 8.29981 8.53822 8.37099 8.53822 8.44217C8.52934 8.54893 8.46719 8.6557 8.36953 8.70908L7.81017 9.08276C7.73914 9.12725 7.65923 9.16284 7.57932 9.16284C7.48166 9.15394 7.38399 9.10946 7.31296 9.03828C7.19754 8.91372 7.08212 8.77136 6.99333 8.62011C6.90454 8.46886 6.81576 8.29981 6.71809 8.09518C6.02555 8.91372 5.15544 9.32299 4.10776 9.32299C3.36195 9.32299 2.76708 9.10946 2.33202 8.68239C1.89697 8.25533 1.675 7.6859 1.675 6.97413C1.675 6.21787 1.94136 5.60396 2.48296 5.14131C3.02456 4.67866 3.74373 4.44733 4.65824 4.44733C4.96899 4.44733 5.28862 4.47402 5.59938 4.51851C5.92789 4.56299 6.26528 4.63417 6.62043 4.71424V4.06475C6.62043 3.38856 6.47837 2.91701 6.20313 2.6412C5.92789 2.36539 5.43956 2.23193 4.7559 2.23193C4.43627 2.23193 4.10776 2.26752 3.797 2.34759C3.46849 2.42767 3.14886 2.52554 2.83811 2.6501C2.74044 2.69458 2.6339 2.73017 2.52735 2.76576C2.48296 2.78355 2.42969 2.79245 2.38529 2.79245C2.26099 2.79245 2.19884 2.70348 2.19884 2.51664V2.08068C2.18996 1.97391 2.2166 1.86714 2.26099 1.76927C2.33202 1.6892 2.41193 1.62692 2.5096 1.58243C2.86474 1.40449 3.23765 1.27103 3.62831 1.18206C4.08112 1.0664 4.55169 1.01301 5.01338 1.01301C6.06995 1.01301 6.84239 1.25324 7.3396 1.73369C7.83681 2.21413 8.07653 2.9437 8.07653 3.92239V6.80508H8.09429ZM4.48954 8.15746C4.8003 8.15746 5.11105 8.10407 5.40405 7.99731C5.73256 7.88164 6.01668 7.68591 6.24752 7.42789C6.38958 7.26774 6.49612 7.072 6.5494 6.85847C6.61155 6.60935 6.63818 6.34243 6.63818 6.08441V5.71073C6.37182 5.64845 6.09658 5.59507 5.82134 5.55948C5.54611 5.52389 5.26199 5.50609 4.98675 5.50609C4.39188 5.50609 3.95682 5.62176 3.66382 5.86198C3.37083 6.10221 3.22877 6.4403 3.22877 6.88516C3.22877 7.30333 3.33531 7.61473 3.55728 7.82826C3.77925 8.04179 4.08112 8.15746 4.48954 8.15746ZM11.6191 9.11835C11.5037 9.12725 11.3794 9.10056 11.2817 9.02938C11.1929 8.93151 11.1219 8.81585 11.0953 8.68239L9.00879 1.80486C8.9644 1.6892 8.93776 1.57354 8.92888 1.44898C8.92001 1.34221 8.99103 1.24434 9.09758 1.22655H10.021C10.1897 1.22655 10.3051 1.25324 10.3672 1.31552C10.4294 1.3778 10.4915 1.49346 10.5448 1.66251L12.0275 7.55245L13.4126 1.66251C13.457 1.48456 13.5103 1.3689 13.5813 1.31552C13.6879 1.25324 13.8122 1.21765 13.9365 1.22655H14.6468C14.8155 1.22655 14.9309 1.25324 15.0019 1.31552C15.0907 1.41339 15.1528 1.52905 15.1706 1.66251L16.5734 7.62362L18.1094 1.66251C18.1361 1.52905 18.1982 1.41339 18.287 1.31552C18.3936 1.25324 18.509 1.21765 18.6333 1.22655H19.459C19.5655 1.20875 19.6632 1.28883 19.681 1.39559V1.44898C19.681 1.49346 19.6721 1.54684 19.6632 1.59133C19.6455 1.67141 19.6277 1.74258 19.6011 1.81376L17.4613 8.69129C17.408 8.86923 17.3459 8.9849 17.2748 9.03828C17.1772 9.10056 17.0529 9.13615 16.9375 9.12725H16.1739C16.0052 9.12725 15.8898 9.10056 15.8187 9.03828C15.73 8.94041 15.6678 8.81585 15.65 8.68239L14.2739 2.9437L12.9065 8.67349C12.8888 8.80695 12.8266 8.93151 12.7378 9.02938C12.6313 9.10056 12.507 9.12725 12.3827 9.11835H11.6191ZM23.0282 9.35858C22.5665 9.35858 22.1049 9.30519 21.6609 9.19843C21.217 9.09166 20.8707 8.976 20.6399 8.84254C20.5244 8.78916 20.4268 8.70018 20.3646 8.59342C20.3291 8.51334 20.3114 8.43327 20.3114 8.3443V7.89054C20.3114 7.7037 20.3824 7.61473 20.5156 7.61473C20.5688 7.61473 20.6221 7.62362 20.6754 7.64142C20.7287 7.65921 20.8086 7.6948 20.8974 7.73039C21.2081 7.87275 21.5366 7.97061 21.874 8.04179C22.2203 8.11297 22.5754 8.14856 22.9306 8.14856C23.4899 8.14856 23.925 8.05069 24.2269 7.85495C24.5199 7.67701 24.6974 7.35671 24.6885 7.00972C24.6974 6.77839 24.6086 6.55596 24.4488 6.38692C24.289 6.21787 23.9871 6.06662 23.5521 5.92426L22.2647 5.52389C21.6165 5.31925 21.1371 5.01675 20.8441 4.61638C20.56 4.24269 20.4001 3.79783 20.4001 3.32628C20.3913 2.97929 20.4712 2.6412 20.6399 2.33869C20.7997 2.05398 21.0128 1.80486 21.2791 1.60913C21.5544 1.39559 21.8651 1.24434 22.2025 1.14647C22.5665 1.03971 22.9394 0.986322 23.3212 0.995219C23.5166 0.995219 23.7208 1.00412 23.9161 1.03081C24.1203 1.0575 24.3068 1.09309 24.4932 1.12868C24.6797 1.16427 24.8395 1.21765 24.9993 1.27103C25.1325 1.31552 25.2568 1.3689 25.3722 1.43118C25.4788 1.48456 25.5675 1.55574 25.6386 1.65361C25.7007 1.74258 25.7274 1.84045 25.7185 1.94722V2.36539C25.7185 2.55223 25.6474 2.6501 25.5143 2.6501C25.3988 2.6323 25.2834 2.59671 25.1769 2.54333C24.6442 2.30311 24.0582 2.18744 23.4722 2.19634C22.9661 2.19634 22.5665 2.27641 22.2913 2.44546C22.0161 2.61451 21.874 2.87253 21.874 3.23731C21.8651 3.47754 21.9628 3.70886 22.1404 3.86901C22.3179 4.03806 22.6465 4.2071 23.117 4.35836L24.3778 4.75873C25.0171 4.96337 25.4788 5.24808 25.754 5.61286C26.0292 5.96875 26.1713 6.41361 26.1624 6.85847C26.1713 7.21435 26.0914 7.57024 25.9316 7.89054C25.7717 8.19305 25.5498 8.45996 25.2834 8.67349C24.9904 8.90482 24.653 9.07387 24.2979 9.17174C23.8895 9.2963 23.4633 9.35858 23.0282 9.35858Z" fill="#252F3E"/>
<path d="M24.7063 13.6828C21.7852 15.8448 17.5412 16.9926 13.8921 16.9926C8.77795 16.9926 4.16991 15.0975 0.689471 11.9479C0.414232 11.6987 0.662835 11.3606 0.991346 11.5564C4.75591 13.7451 9.39946 15.0708 14.2028 15.0708C17.6655 15.053 21.0927 14.3501 24.2801 13.0066C24.7685 12.7842 25.1858 13.3269 24.7063 13.6828Z" fill="#FF9900"/>
<path d="M25.9234 12.2938C25.5505 11.8133 23.4551 12.0625 22.5051 12.1781C22.221 12.2137 22.1766 11.9646 22.4341 11.7777C24.1033 10.6033 26.8468 10.9414 27.1664 11.3329C27.4861 11.7244 27.0776 14.4825 25.515 15.7993C25.2753 16.0039 25.0444 15.8971 25.151 15.6302C25.5061 14.7494 26.2963 12.7653 25.9234 12.2938Z" fill="#FF9900"/>
</svg>
