<svg width="29" height="36" viewBox="0 0 29 36" fill="none" xmlns="http://www.w3.org/2000/svg">
<path fill-rule="evenodd" clip-rule="evenodd" d="M3.7138 26.3142L5.36278 26.9661C5.53027 27.0209 5.69777 27.0757 5.87104 27.1276L5.99233 27.1622C6.18005 27.217 6.37064 27.2719 6.5959 27.3295L7.60954 27.5718C7.84923 27.6266 8.09182 27.6757 8.3575 27.7247L10.0844 27.9958C10.3415 28.0276 10.5956 28.0564 10.8844 28.0881L13.7058 28.2641C14.2372 28.2785 14.7657 28.2785 15.3028 28.2641L16.8392 28.1949L18.1445 28.0853C18.4015 28.0564 18.6614 28.0276 19.0109 27.9843L20.6627 27.7218C20.9111 27.6757 21.1537 27.6266 21.4107 27.5689L22.433 27.3209C22.6294 27.2719 22.8228 27.2171 23.0163 27.1594L23.1261 27.1276C23.3167 27.0728 23.5015 27.0123 23.6979 26.9459L24.2928 26.7325L25.2862 26.2912V29.5736C25.2111 30.1303 21.6908 32.2936 14.5 32.2936C7.31209 32.2936 3.78889 30.1303 3.7138 29.5765V26.3142ZM20.9919 8.43105C20.3335 8.58969 19.626 8.72238 18.8925 8.8291C16.0941 9.22426 12.8943 9.22426 10.1047 8.8291C9.37114 8.72238 8.66361 8.58969 8.00229 8.43105C4.70145 7.64362 3.76578 6.60524 3.7138 6.41775C3.79178 5.86107 7.32364 3.70932 14.5 3.70932C21.6764 3.70932 25.2082 5.86107 25.2891 6.3918C25.2342 6.60524 24.2985 7.64362 20.9919 8.43105ZM7.53734 19.8417C11.7017 20.7589 17.2983 20.7589 21.4627 19.8417C22.0547 19.7119 22.6034 19.5705 23.0972 19.4206C23.5564 19.285 23.9924 19.1379 24.4025 18.9792C24.7086 18.8639 25.0032 18.737 25.2862 18.6072V21.8463C25.2082 22.403 21.6879 24.5634 14.5 24.5634C7.31787 24.5634 3.78889 22.403 3.7138 21.8492V18.6072C3.99393 18.737 4.28849 18.8639 4.59749 18.9821C5.00179 19.135 5.44075 19.2821 5.89703 19.4206C6.41396 19.5763 6.96555 19.7176 7.53734 19.8417ZM4.50219 11.2174L4.5946 11.252C4.77076 11.3183 4.94981 11.3847 5.13175 11.4481L5.31946 11.5145C5.49851 11.5721 5.68333 11.6298 5.88259 11.6904L5.99233 11.725C6.21759 11.7914 6.44284 11.8519 6.67965 11.9125L6.85869 11.9558C7.04063 12.0048 7.22834 12.0481 7.41605 12.0913L7.61243 12.1346C7.85212 12.1865 8.09181 12.2356 8.34595 12.2817L8.46146 12.3048C8.67228 12.3423 8.88309 12.3769 9.10257 12.4144L9.3105 12.4461C9.53864 12.4807 9.77256 12.5153 10.0816 12.5557C10.3386 12.5903 10.5956 12.6163 10.8671 12.648L11.0721 12.6682C11.28 12.6855 11.4908 12.7057 11.693 12.723L11.8865 12.7374C12.1464 12.7576 12.4092 12.7749 12.6778 12.7894L13.7001 12.824C14.2343 12.8384 14.7628 12.8384 15.2971 12.824L16.3309 12.7894C16.5937 12.7749 16.8565 12.7576 17.1222 12.7346L17.2983 12.723C17.5005 12.7057 17.7055 12.6884 17.9279 12.6682L18.1416 12.6451C18.4015 12.6163 18.6614 12.5903 18.9964 12.5442C19.2274 12.5153 19.4614 12.4807 19.6895 12.4461L19.9003 12.4115C20.1169 12.3769 20.3277 12.3423 20.5414 12.3048L20.6627 12.2788C20.9082 12.2356 21.1508 12.1865 21.3962 12.1317L21.584 12.0913C21.7717 12.0481 21.9565 12.0048 22.1384 11.9587L22.3261 11.9125C22.5572 11.8519 22.7853 11.7885 23.0134 11.7221L23.1318 11.6875C23.3196 11.6298 23.5044 11.5722 23.6863 11.5087L23.8683 11.4481C24.03 11.3933 24.1888 11.3327 24.3996 11.2578L24.5123 11.2145C24.7144 11.1308 24.9108 11.0501 25.1158 10.9578L25.2689 10.8857L25.2862 10.877L25.2891 14.1018C25.2458 14.2835 24.313 15.3593 20.9631 16.1526C20.3046 16.3083 19.5884 16.441 18.8347 16.5506C16.1201 16.9313 12.8799 16.9313 10.1624 16.5506C9.4289 16.4468 8.71271 16.3112 8.03983 16.1526C4.68701 15.3593 3.75712 14.2835 3.7138 14.1219V10.8799C3.72247 10.8857 3.73113 10.8885 3.73979 10.8943L3.89285 10.9607C4.08634 11.0501 4.28849 11.1337 4.50219 11.2174ZM14.5 0C7.51713 0 0 2.00753 0 6.41199V29.5765C0 33.9925 7.51713 36 14.5 36C21.4829 36 29 33.9925 29 29.5765V6.41199C29 2.00753 21.4829 0 14.5 0Z" fill="#1B76BC"/>
</svg>
