<svg width="21" height="23" viewBox="0 0 21 23" fill="none" xmlns="http://www.w3.org/2000/svg">
<path d="M10.7013 3.44997C10.6656 3.44997 10.6296 3.44182 10.5966 3.42576L8.13958 2.2319C8.05713 2.19187 8.00464 2.10798 8.00464 2.01643C8.00464 1.92487 8.05713 1.84098 8.13958 1.80095L10.5966 0.606852C10.6625 0.574734 10.7401 0.574734 10.806 0.606852L13.263 1.80095C13.3455 1.84098 13.398 1.92487 13.398 2.01643C13.398 2.10798 13.3455 2.19187 13.263 2.2319L10.806 3.42576C10.773 3.44206 10.737 3.44997 10.7013 3.44997ZM8.79271 2.01643L10.7013 2.944L12.6099 2.01643L10.7013 1.08885L8.79271 2.01643Z" fill="#A44DDA"/>
<path d="M10.7013 6.37987C10.6656 6.37987 10.6296 6.37172 10.5966 6.35566L8.13958 5.1618C8.05713 5.12177 8.00464 5.03788 8.00464 4.94632V2.01644C8.00464 1.93375 8.04706 1.85705 8.11705 1.81319C8.18728 1.76909 8.275 1.76478 8.34906 1.80073L10.7013 2.94402L13.0533 1.80097C13.1279 1.76502 13.2156 1.76957 13.2853 1.81343C13.3553 1.85729 13.398 1.93399 13.398 2.01668V4.94632C13.398 5.03812 13.3455 5.12177 13.263 5.1618L10.806 6.35566C10.773 6.37172 10.737 6.37987 10.7013 6.37987ZM8.484 4.79604L10.7013 5.87366L12.9186 4.79604V2.39922L10.806 3.42578C10.7401 3.4579 10.6625 3.4579 10.5966 3.42578L8.484 2.39946V4.79604Z" fill="#A44DDA"/>
<path d="M10.7013 6.37983C10.569 6.37983 10.4616 6.27245 10.4616 6.14014V3.21026C10.4616 3.07796 10.569 2.97058 10.7013 2.97058C10.8336 2.97058 10.941 3.07796 10.941 3.21026V6.1399C10.941 6.27245 10.8336 6.37983 10.7013 6.37983Z" fill="#A44DDA"/>
<path d="M10.7013 19.2242C10.6656 19.2242 10.6296 19.2163 10.5966 19.2L8.13958 18.0061C8.05713 17.9661 8.00464 17.8822 8.00464 17.7907C8.00464 17.6991 8.05713 17.6152 8.13958 17.5752L10.5966 16.3813C10.6625 16.349 10.7401 16.349 10.806 16.3813L13.263 17.5752C13.3455 17.6152 13.398 17.6991 13.398 17.7907C13.398 17.8822 13.3455 17.9661 13.263 18.0061L10.806 19.2C10.773 19.2163 10.737 19.2242 10.7013 19.2242ZM8.79271 17.7907L10.7013 18.718L12.6099 17.7907L10.7013 16.8633L8.79271 17.7907Z" fill="#A44DDA"/>
<path d="M10.7013 22.1541C10.6656 22.1541 10.6296 22.1462 10.5966 22.1299L8.13958 20.936C8.05713 20.896 8.00464 20.8121 8.00464 20.7205V17.7907C8.00464 17.708 8.04706 17.6313 8.11705 17.5874C8.18728 17.5435 8.275 17.539 8.34906 17.5749L10.7013 18.718L13.0533 17.5749C13.1279 17.5392 13.2156 17.5433 13.2853 17.5874C13.3553 17.6313 13.398 17.708 13.398 17.7907V20.7205C13.398 20.8123 13.3455 20.896 13.263 20.936L10.806 22.1299C10.773 22.1462 10.737 22.1541 10.7013 22.1541ZM8.484 20.5705L10.7013 21.6479L12.9186 20.5705V18.1737L10.806 19.2002C10.7401 19.2326 10.6625 19.2326 10.5966 19.2002L8.484 18.1737V20.5705Z" fill="#A44DDA"/>
<path d="M10.7013 22.1541C10.569 22.1541 10.4616 22.047 10.4616 21.9144V18.9846C10.4616 18.852 10.569 18.7449 10.7013 18.7449C10.8336 18.7449 10.941 18.852 10.941 18.9846V21.9144C10.941 22.047 10.8336 22.1541 10.7013 22.1541Z" fill="#A44DDA"/>
<path d="M3.14628 15.6247C3.11057 15.6247 3.07462 15.6168 3.04154 15.6005L0.584557 14.4064C0.502106 14.3664 0.449615 14.2825 0.449615 14.1909C0.449615 14.0994 0.502106 14.0155 0.584557 13.9755L3.04154 12.7816C3.10746 12.7492 3.18511 12.7492 3.25103 12.7816L5.70801 13.9755C5.79046 14.0155 5.84295 14.0994 5.84295 14.1909C5.84295 14.2825 5.79046 14.3664 5.70801 14.4064L3.25103 15.6005C3.21795 15.6168 3.182 15.6247 3.14628 15.6247ZM1.23769 14.1907L3.14628 15.1183L5.05488 14.1907L3.14628 13.2634L1.23769 14.1907Z" fill="#A44DDA"/>
<path d="M3.14628 18.554C3.11057 18.554 3.07462 18.5461 3.04154 18.5298L0.584557 17.336C0.502106 17.2959 0.449615 17.2121 0.449615 17.1205V14.1906C0.449615 14.1079 0.492039 14.0312 0.562266 13.9874C0.632254 13.9433 0.719977 13.9387 0.794039 13.9749L3.14628 15.1182L5.49853 13.9749C5.57259 13.9387 5.66032 13.9433 5.7303 13.9874C5.80029 14.0312 5.84295 14.1079 5.84295 14.1906V17.1205C5.84295 17.2123 5.79046 17.2959 5.70801 17.336L3.25103 18.5301C3.21795 18.5461 3.182 18.554 3.14628 18.554ZM0.928981 16.9705L3.14628 18.0478L5.36359 16.9705V14.5736L3.25103 15.6004C3.18511 15.6328 3.10746 15.6328 3.04154 15.6004L0.928981 14.5736V16.9705Z" fill="#A44DDA"/>
<path d="M3.14627 18.5542C3.01396 18.5542 2.90659 18.447 2.90659 18.3145V15.3851C2.90659 15.2525 3.01396 15.1454 3.14627 15.1454C3.27857 15.1454 3.38595 15.2525 3.38595 15.3851V18.3145C3.38595 18.447 3.27857 18.5542 3.14627 18.5542Z" fill="#A44DDA"/>
<path d="M18.2564 15.6247C18.2207 15.6247 18.1847 15.6168 18.1514 15.6005L15.6944 14.4064C15.612 14.3664 15.5595 14.2825 15.5595 14.1909C15.5595 14.0994 15.612 14.0155 15.6944 13.9755L18.1514 12.7816C18.2178 12.7492 18.2947 12.7492 18.3611 12.7816L20.8179 13.9755C20.9003 14.0155 20.9528 14.0994 20.9528 14.1909C20.9528 14.2825 20.9003 14.3664 20.8179 14.4064L18.3611 15.6005C18.3281 15.6168 18.2923 15.6247 18.2564 15.6247ZM16.348 14.1907L18.2566 15.1183L20.1652 14.1907L18.2566 13.2634L16.348 14.1907Z" fill="#A44DDA"/>
<path d="M18.2564 18.554C18.2207 18.554 18.1847 18.5461 18.1514 18.5298L15.6944 17.336C15.612 17.2959 15.5595 17.2121 15.5595 17.1205V14.1906C15.5595 14.1079 15.6021 14.0312 15.6721 13.9874C15.7421 13.9433 15.8298 13.9387 15.9041 13.9749L18.2561 15.1182L20.6082 13.9749C20.6827 13.9389 20.7704 13.9435 20.8402 13.9874C20.9102 14.0312 20.9528 14.1079 20.9528 14.1906V17.1205C20.9528 17.2123 20.9003 17.2959 20.8179 17.336L18.3611 18.5298C18.3281 18.5461 18.2923 18.554 18.2564 18.554ZM16.0393 16.9705L18.2566 18.0478L20.4737 16.9705V14.5736L18.3614 15.6004C18.295 15.6328 18.218 15.6328 18.1516 15.6004L16.0393 14.5736V16.9705Z" fill="#A44DDA"/>
<path d="M18.2563 18.5542C18.1238 18.5542 18.0167 18.447 18.0167 18.3145V15.3851C18.0167 15.2525 18.1238 15.1454 18.2563 15.1454C18.3889 15.1454 18.496 15.2525 18.496 15.3851V18.3145C18.496 18.447 18.3889 18.5542 18.2563 18.5542Z" fill="#A44DDA"/>
<path d="M3.14628 7.05006C3.11057 7.05006 3.07462 7.04192 3.04154 7.02586L0.584557 5.83176C0.502106 5.79173 0.449615 5.70784 0.449615 5.61628C0.449615 5.52472 0.502106 5.44084 0.584557 5.40081L3.04154 4.20695C3.10746 4.17483 3.18511 4.17483 3.25103 4.20695L5.70801 5.40081C5.79046 5.44084 5.84295 5.52472 5.84295 5.61628C5.84295 5.70784 5.79046 5.79173 5.70801 5.83176L3.25103 7.02586C3.21795 7.04192 3.182 7.05006 3.14628 7.05006ZM1.23769 5.61628L3.14628 6.54385L5.05488 5.61628L3.14628 4.68871L1.23769 5.61628Z" fill="#A44DDA"/>
<path d="M3.14628 9.97974C3.11057 9.97974 3.07462 9.97159 3.04154 9.95553L0.584557 8.76167C0.502106 8.72164 0.449615 8.63775 0.449615 8.5462V5.61632C0.449615 5.53363 0.492039 5.45693 0.562266 5.41307C0.632254 5.3692 0.719977 5.36465 0.794039 5.4006L3.14628 6.54389L5.49853 5.4006C5.57259 5.36441 5.66032 5.3692 5.7303 5.41307C5.80029 5.45693 5.84295 5.53363 5.84295 5.61632V8.5462C5.84295 8.63799 5.79046 8.72164 5.70801 8.76167L3.25103 9.95553C3.21795 9.97159 3.182 9.97974 3.14628 9.97974ZM0.928981 8.39616L3.14628 9.47377L5.36359 8.39616V5.99933L3.25103 7.02613C3.18511 7.05825 3.10746 7.05825 3.04154 7.02613L0.928981 5.99933V8.39616Z" fill="#A44DDA"/>
<path d="M3.14627 9.97968C3.01396 9.97968 2.90659 9.87231 2.90659 9.74V6.81036C2.90659 6.67806 3.01396 6.57068 3.14627 6.57068C3.27857 6.57068 3.38595 6.67806 3.38595 6.81036V9.74C3.38595 9.87231 3.27857 9.97968 3.14627 9.97968Z" fill="#A44DDA"/>
<path d="M18.2564 7.05006C18.2207 7.05006 18.1847 7.04192 18.1514 7.02586L15.6946 5.83176C15.6122 5.79173 15.5597 5.70784 15.5597 5.61628C15.5597 5.52472 15.6122 5.44084 15.6946 5.40081L18.1516 4.20695C18.218 4.17483 18.295 4.17483 18.3613 4.20695L20.8181 5.40081C20.9005 5.44084 20.953 5.52472 20.953 5.61628C20.953 5.70784 20.9005 5.79173 20.8181 5.83176L18.3613 7.02586C18.328 7.04192 18.2923 7.05006 18.2564 7.05006ZM16.348 5.61628L18.2566 6.54385L20.165 5.61628L18.2566 4.68871L16.348 5.61628Z" fill="#A44DDA"/>
<path d="M18.2564 9.97976C18.2207 9.97976 18.1847 9.97161 18.1514 9.95555L15.6944 8.76169C15.612 8.72167 15.5595 8.63778 15.5595 8.54622V5.61634C15.5595 5.53365 15.6021 5.45695 15.6721 5.41309C15.7421 5.36923 15.8298 5.36467 15.9041 5.40063L18.2561 6.54391L20.6082 5.40063C20.6827 5.36491 20.7704 5.36947 20.8402 5.41309C20.9102 5.45695 20.9528 5.53365 20.9528 5.61634V8.54622C20.9528 8.63802 20.9003 8.72167 20.8179 8.76169L18.3611 9.95555C18.3281 9.97161 18.2923 9.97976 18.2564 9.97976ZM16.0393 8.39618L18.2566 9.47379L20.4737 8.39618V5.99935L18.3614 7.02591C18.295 7.05803 18.218 7.05803 18.1516 7.02591L16.0393 5.99911V8.39618Z" fill="#A44DDA"/>
<path d="M18.2563 9.97968C18.1238 9.97968 18.0167 9.87231 18.0167 9.74V6.81036C18.0167 6.67806 18.1238 6.57068 18.2563 6.57068C18.3889 6.57068 18.496 6.67806 18.496 6.81036V9.74C18.496 9.87231 18.3889 9.97968 18.2563 9.97968Z" fill="#A44DDA"/>
<path d="M8.2441 18.3857C8.20599 18.3857 8.16716 18.3766 8.13121 18.3575L5.49014 16.9428C5.37342 16.8803 5.32956 16.735 5.39211 16.6183C5.45443 16.5018 5.59992 16.458 5.71664 16.5203L8.35771 17.9349C8.47443 17.9975 8.5183 18.1427 8.45574 18.2594C8.41236 18.34 8.32966 18.3857 8.2441 18.3857Z" fill="#A44DDA"/>
<path d="M3.14627 13.2364C3.01396 13.2364 2.90659 13.1293 2.90659 12.9967V9.73993C2.90659 9.60762 3.01396 9.50024 3.14627 9.50024C3.27857 9.50024 3.38595 9.60762 3.38595 9.73993V12.9967C3.38595 13.1293 3.27857 13.2364 3.14627 13.2364Z" fill="#A44DDA"/>
<path d="M5.60351 6.24498C5.51795 6.24498 5.43526 6.1992 5.39211 6.11843C5.32956 6.0017 5.37342 5.85646 5.49014 5.7939L8.13121 4.37905C8.24793 4.31673 8.39318 4.3606 8.45574 4.47708C8.5183 4.59381 8.47443 4.73906 8.35771 4.80161L5.71664 6.21646C5.68045 6.23587 5.64162 6.24498 5.60351 6.24498Z" fill="#A44DDA"/>
<path d="M15.7994 6.24507C15.7613 6.24507 15.7224 6.23596 15.6862 6.21655L13.0449 4.8017C12.9285 4.73915 12.8843 4.5939 12.9469 4.47717C13.0095 4.36069 13.155 4.31635 13.2714 4.37914L15.9127 5.79399C16.0292 5.85655 16.0733 6.00179 16.0108 6.11852C15.9676 6.19929 15.8847 6.24507 15.7994 6.24507Z" fill="#A44DDA"/>
<path d="M18.2563 13.2364C18.1238 13.2364 18.0167 13.1293 18.0167 12.9967V9.73993C18.0167 9.60762 18.1238 9.50024 18.2563 9.50024C18.3889 9.50024 18.496 9.60762 18.496 9.73993V12.9967C18.496 13.1293 18.3889 13.2364 18.2563 13.2364Z" fill="#A44DDA"/>
<path d="M13.1585 18.3858C13.073 18.3858 12.9903 18.34 12.9469 18.2592C12.8843 18.1428 12.9284 17.9973 13.0452 17.9347L15.6865 16.5201C15.8027 16.4578 15.9484 16.5019 16.011 16.6184C16.0736 16.7349 16.0295 16.8804 15.9127 16.9429L13.2714 18.3575C13.2355 18.3767 13.1966 18.3858 13.1585 18.3858Z" fill="#A44DDA"/>
<path d="M10.7013 11.3372C10.6656 11.3372 10.6296 11.329 10.5966 11.313L8.13958 10.1189C8.05713 10.0788 8.00464 9.99495 8.00464 9.90339C8.00464 9.81183 8.05713 9.72794 8.13958 9.68792L10.5966 8.49406C10.6625 8.46194 10.7401 8.46194 10.806 8.49406L13.263 9.68792C13.3455 9.72794 13.398 9.81183 13.398 9.90339C13.398 9.99495 13.3455 10.0788 13.263 10.1189L10.806 11.3132C10.773 11.329 10.737 11.3372 10.7013 11.3372ZM8.79271 9.90339L10.7013 10.831L12.6099 9.90339L10.7013 8.97606L8.79271 9.90339Z" fill="#A44DDA"/>
<path d="M10.7013 14.2671C10.6656 14.2671 10.6296 14.2592 10.5966 14.2429L8.13958 13.0488C8.05713 13.0088 8.00464 12.9249 8.00464 12.8333V9.90343C8.00464 9.82074 8.04706 9.74404 8.11729 9.70017C8.18752 9.65631 8.275 9.65152 8.34906 9.68771L10.7013 10.831L13.0533 9.68771C13.1279 9.65176 13.2156 9.65631 13.2853 9.70017C13.3553 9.74404 13.398 9.82074 13.398 9.90343V12.8331C13.398 12.9249 13.3455 13.0085 13.263 13.0485L10.806 14.2426C10.773 14.2592 10.737 14.2671 10.7013 14.2671ZM8.484 12.683L10.7013 13.7606L12.9186 12.683V10.2862L10.806 11.313C10.7401 11.3451 10.6625 11.3451 10.5966 11.313L8.484 10.2862V12.683Z" fill="#A44DDA"/>
<path d="M10.7013 14.267C10.569 14.267 10.4616 14.1599 10.4616 14.0274V11.0975C10.4616 10.9652 10.569 10.8578 10.7013 10.8578C10.8336 10.8578 10.941 10.9652 10.941 11.0975V14.0274C10.941 14.1597 10.8336 14.267 10.7013 14.267Z" fill="#A44DDA"/>
<path d="M5.61574 14.4304C5.52898 14.4304 5.44509 14.3832 5.40242 14.3008C5.34179 14.1831 5.3878 14.0385 5.50549 13.9777L8.13433 12.6201C8.25201 12.5595 8.39654 12.6055 8.45742 12.7232C8.51806 12.8409 8.47204 12.9854 8.35436 13.0463L5.72552 14.4038C5.69028 14.4218 5.65265 14.4304 5.61574 14.4304Z" fill="#A44DDA"/>
<path d="M15.7893 14.4825C15.7512 14.4825 15.7124 14.4734 15.6762 14.4542L13.0449 13.0447C12.9285 12.9821 12.8843 12.8368 12.9469 12.7201C13.0095 12.6036 13.155 12.5598 13.2714 12.6221L15.9027 14.0317C16.0192 14.0942 16.0633 14.2395 16.0007 14.3562C15.9576 14.4367 15.8746 14.4825 15.7893 14.4825Z" fill="#A44DDA"/>
<path d="M13.1585 10.1431C13.073 10.1431 12.9903 10.0973 12.9469 10.0165C12.8843 9.89979 12.9284 9.75455 13.0452 9.69199L15.6865 8.27738C15.8027 8.21459 15.9484 8.25869 16.011 8.37541C16.0736 8.49214 16.0295 8.63739 15.9127 8.69994L13.2714 10.1146C13.2355 10.134 13.1966 10.1431 13.1585 10.1431Z" fill="#A44DDA"/>
<path d="M8.24411 10.1431C8.2072 10.1431 8.16981 10.1345 8.13481 10.1165L5.49375 8.75894C5.37607 8.69854 5.32957 8.55402 5.39021 8.43633C5.45085 8.31865 5.59538 8.27239 5.71282 8.33279L8.35388 9.69035C8.47157 9.75075 8.51806 9.89528 8.45743 10.013C8.415 10.0957 8.33111 10.1431 8.24411 10.1431Z" fill="#A44DDA"/>
</svg>
