<svg width="181" height="200" viewBox="0 0 181 200" fill="none" xmlns="http://www.w3.org/2000/svg">
<path fill-rule="evenodd" clip-rule="evenodd" d="M85.2414 1.86191C88.4526 0.0567721 92.4061 0.0567721 95.6124 1.86191C111.479 10.7832 159.225 37.6372 175.096 46.5587C178.307 48.3589 180.283 51.6944 180.283 55.3046C180.283 73.1472 180.283 126.851 180.283 144.693C180.283 148.303 178.307 151.639 175.096 153.444C159.229 162.365 111.484 189.219 95.6124 198.141C92.4014 199.946 88.4477 199.946 85.2414 198.141C69.3751 189.219 21.6295 162.365 5.75835 153.444C2.55198 151.639 0.575195 148.308 0.575195 144.698C0.575195 126.855 0.575195 73.1521 0.575195 55.3093C0.575195 51.699 2.55198 48.3638 5.763 46.5587C21.6246 37.6372 69.3797 10.7832 85.2414 1.86191Z" fill="url(#paint0_linear_2497_163)"/>
<path fill-rule="evenodd" clip-rule="evenodd" d="M2.01285 149.294C0.754887 147.607 0.575195 146.006 0.575195 143.85C0.575195 126.112 0.575195 72.7162 0.575195 54.9731C0.575195 51.3818 2.54726 48.0654 5.74881 46.2745C21.5586 37.4052 69.1435 10.7075 84.953 1.83353C88.1547 0.0379022 92.4912 0.0758144 95.6929 1.87144C111.502 10.7407 158.927 37.2109 174.736 46.0801C176.013 46.8004 176.987 47.6674 177.857 48.8091L2.01285 149.294Z" fill="url(#paint1_linear_2497_163)"/>
<path fill-rule="evenodd" clip-rule="evenodd" d="M90.4291 33.6716C126.971 33.6716 156.638 63.392 156.638 100.001C156.638 136.61 126.971 166.331 90.4291 166.331C53.8868 166.331 24.2207 136.61 24.2207 100.001C24.2207 63.392 53.8868 33.6716 90.4291 33.6716ZM90.4291 66.8363C108.698 66.8363 123.533 81.6943 123.533 100.001C123.533 118.303 108.698 133.166 90.4291 133.166C72.1603 133.166 57.325 118.303 57.325 100.001C57.325 81.6943 72.1556 66.8363 90.4291 66.8363Z" fill="white"/>
<path fill-rule="evenodd" clip-rule="evenodd" d="M177.847 48.8564C180.288 51.1448 180.24 54.594 180.24 57.3088C180.24 75.2889 180.089 126.429 180.283 144.409C180.302 146.285 179.682 148.261 178.756 149.748L88.5039 100.001L177.847 48.8564Z" fill="url(#paint2_linear_2497_163)"/>
<g opacity="0.05">
<path fill-rule="evenodd" clip-rule="evenodd" d="M132.992 85.7881V95.2635H142.45V104.739H132.992V114.215H123.533V104.739H114.075V95.2635H123.533V85.7881H132.992ZM137.721 81.05H132.992H123.533H118.804V85.7881V90.5258H114.075H109.346V95.2635V104.739V109.477H114.075H118.804V114.215V118.953H123.533H132.992H137.721V114.215V109.477H142.45H147.179V104.739V95.2635V90.5258H142.45H137.721V85.7881V81.05Z" fill="black"/>
<path fill-rule="evenodd" clip-rule="evenodd" d="M166.096 85.7881V95.2635H175.554V104.739H166.096V114.215H156.638V104.739H147.179V95.2635H156.638V85.7881H166.096ZM170.825 81.05H166.096H156.638H151.908V85.7881V90.5258H147.179H142.45V95.2635V104.739V109.477H147.179H151.908V114.215V118.953H156.638H166.096H170.825V114.215V109.477H175.554H180.283V104.739V95.2635V90.5258H175.554H170.825V85.7881V81.05Z" fill="black"/>
</g>
<g opacity="0.07">
<path fill-rule="evenodd" clip-rule="evenodd" d="M132.991 85.788V95.2634H142.45V104.739H132.991V114.215H123.533V104.739H114.075V95.2634H123.533V85.788H132.991ZM135.356 83.4189H132.991H123.533H121.168V85.788V92.8947H114.075H111.71V95.2634V104.739V107.108H114.075H121.168V114.215V116.584H123.533H132.991H135.356V114.215V107.108H142.45H144.814V104.739V95.2634V92.8947H142.45H135.356V85.788V83.4189Z" fill="black"/>
<path fill-rule="evenodd" clip-rule="evenodd" d="M166.095 85.788V95.2634H175.554V104.739H166.095V114.215H156.637V104.739H147.179V95.2634H156.637V85.788H166.095ZM168.46 83.4189H166.095H156.637H154.272V85.788V92.8947H147.179H144.814V95.2634V104.739V107.108H147.179H154.272V114.215V116.584H156.637H166.095H168.46V114.215V107.108H175.554H177.918V104.739V95.2634V92.8947H175.554H168.46V85.788V83.4189Z" fill="black"/>
</g>
<path fill-rule="evenodd" clip-rule="evenodd" d="M132.992 85.7878H123.533V95.2636H114.075V104.739H123.533V114.215H132.992V104.739H142.45V95.2636H132.992V85.7878Z" fill="white"/>
<path fill-rule="evenodd" clip-rule="evenodd" d="M175.554 95.2636H166.095V85.7878H156.637V95.2636H147.179V104.739H156.637V114.215H166.095V104.739H175.554V95.2636Z" fill="white"/>
<path opacity="0.05" fill-rule="evenodd" clip-rule="evenodd" d="M90.4287 33.6718C114.68 33.6718 135.838 46.8004 147.373 66.3013L118.652 82.7414C112.831 73.2184 102.379 66.8365 90.4287 66.8365C72.1552 66.8365 57.3246 81.6945 57.3246 100.001C57.3246 118.304 72.1599 133.166 90.4287 133.166C102.583 133.166 113.185 126.571 118.941 116.778L147.94 132.764C136.538 152.79 115.068 166.331 90.4287 166.331C53.8864 166.331 24.2203 136.611 24.2203 100.001C24.2203 63.3922 53.8864 33.6718 90.4287 33.6718ZM90.4287 28.9341C51.3138 28.9341 19.4912 60.8149 19.4912 100.001C19.4912 139.188 51.3138 171.069 90.4287 171.069C115.81 171.069 139.423 157.291 152.05 135.109L154.429 130.93L150.219 128.608L121.22 112.623L117.196 110.406L114.864 114.371C109.771 123.042 100.407 128.428 90.4287 128.428C74.7845 128.428 62.0537 115.674 62.0537 100.001C62.0537 84.3287 74.7845 71.5745 90.4287 71.5745C100.355 71.5745 109.397 76.6723 114.618 85.2146L117.016 89.1375L120.998 86.8587L149.718 70.4183L153.889 68.0305L151.44 63.8897C138.69 42.3278 115.314 28.9341 90.4287 28.9341Z" fill="black"/>
<path opacity="0.07" fill-rule="evenodd" clip-rule="evenodd" d="M90.4293 33.6717C114.68 33.6717 135.839 46.8003 147.373 66.3012L118.653 82.7413C112.831 73.2183 102.38 66.8364 90.4293 66.8364C72.1558 66.8364 57.3252 81.6944 57.3252 100.001C57.3252 118.303 72.1604 133.166 90.4293 133.166C102.583 133.166 113.186 126.571 118.942 116.778L147.941 132.763C136.539 152.79 115.068 166.331 90.4293 166.331C53.8869 166.331 24.2209 136.61 24.2209 100.001C24.2209 63.3921 53.8869 33.6717 90.4293 33.6717ZM90.4293 31.3027C52.6196 31.3027 21.8564 62.1225 21.8564 100.001C21.8564 137.88 52.6196 168.7 90.4293 168.7C114.964 168.7 137.787 155.377 149.993 133.938L151.185 131.849L149.08 130.688L120.081 114.703L118.071 113.594L116.908 115.574C111.384 124.965 101.24 130.797 90.4293 130.797C73.4799 130.797 59.6896 116.982 59.6896 100.001C59.6896 83.0209 73.4799 69.2054 90.4293 69.2054C101.188 69.2054 110.982 74.7298 116.638 83.9779L117.835 85.9394L119.826 84.7976L148.546 68.3573L150.631 67.1634L149.407 65.0931C137.078 44.2512 114.482 31.3027 90.4293 31.3027Z" fill="black"/>
<defs>
<linearGradient id="paint0_linear_2497_163" x1="0.575195" y1="100.001" x2="180.283" y2="100.001" gradientUnits="userSpaceOnUse">
<stop offset="0.002" stop-color="#427FDB"/>
<stop offset="0.397" stop-color="#2668CB"/>
<stop offset="0.763" stop-color="#1358BF"/>
<stop offset="1" stop-color="#0C52BB"/>
</linearGradient>
<linearGradient id="paint1_linear_2497_163" x1="0.575195" y1="74.9004" x2="177.857" y2="74.9004" gradientUnits="userSpaceOnUse">
<stop stop-color="#32BDEF"/>
<stop offset="1" stop-color="#1EA2E4"/>
</linearGradient>
<linearGradient id="paint2_linear_2497_163" x1="88.5039" y1="99.3001" x2="180.283" y2="99.3001" gradientUnits="userSpaceOnUse">
<stop stop-color="#2AA4F4"/>
<stop offset="1" stop-color="#007AD9"/>
</linearGradient>
</defs>
</svg>
