<svg width="39" height="55" viewBox="0 0 39 55" fill="none" xmlns="http://www.w3.org/2000/svg">
<path d="M19.4761 54.8631L3.54924 50.4566L0 10.7819H39L35.447 50.4504L19.4761 54.8631Z" fill="#264DE4"/>
<path d="M32.4052 47.9245L35.4415 14.0259H19.5V51.4902L32.4052 47.9245Z" fill="#2965F1"/>
<path d="M8.13655 28.7407L8.57414 33.6066H19.5V28.7407H8.13655Z" fill="#EBEBEB"/>
<path d="M7.25728 18.8919L7.70111 23.7579H19.5V18.8919H7.25728Z" fill="#EBEBEB"/>
<path d="M19.5 41.3781L19.4786 41.3837L14.0411 39.9204L13.6935 36.0396H8.7923L9.47632 43.6798L19.4775 46.4469L19.5 46.4407V41.3781Z" fill="#EBEBEB"/>
<path d="M9.17839 0H15.0918V2.46456H11.6513V4.92911H15.0918V7.39367H9.17839V0Z" fill="black"/>
<path d="M16.2745 0H22.1879V2.14309H18.7474V2.57171H22.1879V7.50082H16.2745V5.25058H19.715V4.82196H16.2745V0Z" fill="black"/>
<path d="M23.3706 0H29.284V2.14309H25.8435V2.57171H29.284V7.50082H23.3706V5.25058H26.8111V4.82196H23.3706V0Z" fill="black"/>
<path d="M30.8322 28.7407L31.7136 18.8919H19.4831V23.7579H26.3629L25.9186 28.7407H19.4831V33.6066H25.4952L24.9285 39.9173L19.4831 41.3821V46.4445L29.4923 43.6799L29.5657 42.8578L30.713 30.0473L30.8322 28.7407Z" fill="white"/>
</svg>
