<svg width="24" height="24" viewBox="0 0 24 24" fill="none" xmlns="http://www.w3.org/2000/svg">
<path d="M0.925419 11.6185C0.925419 17.9827 6.08467 23.142 12.4489 23.142C18.8132 23.142 23.9724 17.9827 23.9724 11.6185C23.9724 5.25422 18.8132 0.0949707 12.4489 0.0949707C6.08467 0.0949707 0.925419 5.25422 0.925419 11.6185Z" fill="#512BD4"/>
<path d="M5.03314 14.8193C4.87018 14.8193 4.73167 14.765 4.6176 14.6564C4.50352 14.545 4.44649 14.4128 4.44649 14.2596C4.44649 14.1036 4.50352 13.97 4.6176 13.8586C4.73167 13.7472 4.87018 13.6915 5.03314 13.6915C5.19882 13.6915 5.33869 13.7472 5.45276 13.8586C5.56955 13.97 5.62794 14.1036 5.62794 14.2596C5.62794 14.4128 5.56955 14.545 5.45276 14.6564C5.33869 14.765 5.19882 14.8193 5.03314 14.8193Z" fill="white"/>
<path d="M11.5476 14.7274H10.4884L7.6977 10.3247C7.62709 10.2133 7.56866 10.0978 7.52252 9.97802H7.49806C7.51979 10.1061 7.53065 10.3804 7.53065 10.8009V14.7274H6.59361V8.73743H7.72211L10.4191 13.0356C10.5332 13.2139 10.6065 13.3364 10.6391 13.4032H10.6554C10.6283 13.2445 10.6147 12.9758 10.6147 12.597V8.73743H11.5476V14.7274Z" fill="white"/>
<path d="M16.1106 14.7274H12.831V8.73743H15.9802V9.58122H13.8007V11.2771H15.8092V12.1167H13.8007V13.8878H16.1106V14.7274Z" fill="white"/>
<path d="M20.7714 9.58122H19.0929V14.7274H18.1233V9.58122H16.4489V8.73743H20.7714V9.58122Z" fill="white"/>
</svg>
