<svg width="208" height="182" viewBox="0 0 208 182" fill="none" xmlns="http://www.w3.org/2000/svg">
<path d="M66.3652 152.823L30.0059 90.3747L66.3652 27.926H139.081L175.44 90.3747L139.081 152.823H66.3652Z" fill="#E1E1E1"/>
<path d="M103.937 118.88C88.3106 118.88 75.5972 106.273 75.5972 90.7769C75.5972 75.281 88.3106 62.6736 103.937 62.6736C119.564 62.6736 132.277 75.281 132.277 90.7769C132.277 106.273 119.564 118.88 103.937 118.88Z" fill="white"/>
<path d="M160.952 6.99106C158.724 3.16425 153.255 0.0332031 148.798 0.0332031H59.1992C54.7432 0.0332031 49.2738 3.16425 47.046 6.99106L20.8654 51.9588C20.6598 54.864 21.1975 57.8987 22.4887 60.1162L40.2107 90.1629L71.847 35.9648H171.84C174.206 35.9648 176.853 36.8525 179.154 38.2525L160.952 6.99106Z" fill="#5072AA"/>
<path d="M205.752 83.938L179.154 38.2513C176.853 36.8514 174.206 35.9636 171.84 35.9636H135.781L166.96 90.4609L117.597 176.945C116.511 178.81 114.653 180.506 112.52 181.759H148.798C153.255 181.759 158.724 178.627 160.952 174.801L205.752 97.8539C207.981 94.0271 207.981 87.765 205.752 83.938Z" fill="#CC4232"/>
<path d="M72.5356 144.967L22.4882 60.1162C21.197 57.8987 20.6593 54.864 20.8648 51.9589L2.24524 83.9391C0.0172121 87.7662 0.0172121 94.0283 2.24524 97.8551L47.0455 174.802C49.2732 178.629 54.7427 181.76 59.1987 181.76H112.52C114.653 180.508 116.511 178.811 117.597 176.946L135.848 144.967H72.5356Z" fill="#ECB02A"/>
</svg>
