<svg width="23" height="22" viewBox="0 0 23 22" fill="none" xmlns="http://www.w3.org/2000/svg">
<path d="M11.4312 21.6186L15.5761 8.8689H7.29224L11.4312 21.6186Z" fill="#E24329"/>
<path d="M1.48659 8.8689L0.224364 12.7424C0.110144 13.0941 0.233494 13.4824 0.534972 13.7016L11.4312 21.6185L1.48659 8.8689Z" fill="#FCA326"/>
<path d="M1.4866 8.86877H7.29226L4.79367 1.19026C4.66579 0.797419 4.10848 0.797419 3.976 1.19026L1.4866 8.86877Z" fill="#E24329"/>
<path d="M21.3817 8.8689L22.6394 12.7424C22.7537 13.0941 22.6303 13.4824 22.3288 13.7016L11.4312 21.6186L21.3817 8.8689Z" fill="#FCA326"/>
<path d="M21.3818 8.86877H15.5761L18.0701 1.19026C18.198 0.797419 18.7553 0.797419 18.8878 1.19026L21.3818 8.86877Z" fill="#E24329"/>
<path d="M11.4312 21.6186L15.5761 8.8689H21.3817L11.4312 21.6186Z" fill="#FC6D26"/>
<path d="M11.4312 21.6186L1.4866 8.8689H7.29226L11.4312 21.6186Z" fill="#FC6D26"/>
</svg>
