<svg width="43" height="61" viewBox="0 0 43 61" fill="none" xmlns="http://www.w3.org/2000/svg">
<path d="M3.9172 56.097L0 12H43L39.0828 56.097L21.4702 61L3.9172 56.097Z" fill="#E44D26"/>
<path d="M22 57L35.7669 53.0952L39 16H22V57Z" fill="#F16529"/>
<path d="M22 31.7089H14.6143L14.0999 26.2911H22V21H21.9794H8L8.13373 22.4227L9.50184 37H22V31.7089Z" fill="#EBEBEB"/>
<path d="M22 46.1602H21.9798L15.8841 44.4755L15.4912 40H12.539H10L10.7758 48.8062L21.9698 52L22 51.9897V46.1602Z" fill="#EBEBEB"/>
<path d="M4 0H6.74627V2.64727H9.25373V0H12V8H9.26368V5.32364H6.74627V8H4V0Z" fill="black"/>
<path d="M15.5512 2.65375H13V0H21V2.65375H18.4488V8H15.5512V2.65375Z" fill="black"/>
<path d="M22 0H24.7871L26.5 2.81212L28.2129 0H31V8H28.3387V4.03394L26.5 6.87515H26.4516L24.6129 4.03394V8H22V0Z" fill="black"/>
<path d="M33 0H35.494V5.35273H39V8H33V0Z" fill="black"/>
<path d="M22 32V37.4987H28.3518L27.7528 44.6278L22 46.2785V52L32.5832 48.8709L32.6593 47.9494L33.8764 33.4785L34 32H32.6022H22Z" fill="white"/>
<path d="M22 21V24.1123V25.9908V26H34.5125H34.5316L34.6368 24.8766L34.8757 22.3444L35 21H22Z" fill="white"/>
</svg>
