<svg width="20" height="20" viewBox="0 0 20 20" fill="none" xmlns="http://www.w3.org/2000/svg">
<path d="M4.16667 10.8335V18.3335H2.5V10.8335H4.16667Z" fill="#808080"/>
<path d="M19.167 10.8335V12.5002H17.5003V18.3335H15.8337V12.5002H14.167V10.8335H19.167Z" fill="#808080"/>
<path d="M9.99992 9.16667C11.1676 9.17271 12.3105 9.50414 13.3002 10.1238L14.506 8.91561C13.1825 7.99727 11.6108 7.50352 9.99992 7.5C8.41041 7.5033 6.85981 7.99201 5.55566 8.90073L6.76326 10.1106C7.73279 9.49981 8.85404 9.17281 9.99992 9.16667Z" fill="#808080"/>
<path d="M9.99967 5.83317C12.0516 5.83727 14.0479 6.50018 15.6947 7.72426L16.8835 6.53317C14.9152 5.00204 12.4934 4.16941 9.99967 4.1665C7.52736 4.16963 5.12672 4.99725 3.17773 6.51836L4.36649 7.70939C5.99397 6.49519 7.96917 5.83732 9.99967 5.83317Z" fill="#808080"/>
<path d="M10.0004 2.50018C12.9365 2.50071 15.7844 3.50338 18.0732 5.34235L19.262 4.15133C16.6637 2.00904 13.4016 0.836214 10.034 0.833501C6.66645 0.830787 3.40256 1.99836 0.800781 4.13645L1.98961 5.32753C4.25909 3.4987 7.08579 2.50104 10.0004 2.50018Z" fill="#808080"/>
<path d="M10 10.8335C9.25832 10.8335 8.5333 11.0534 7.91661 11.4655C7.29993 11.8775 6.81928 12.4632 6.53545 13.1484C6.25162 13.8337 6.17736 14.5877 6.32206 15.3151C6.46675 16.0425 6.8239 16.7107 7.34835 17.2351C7.8728 17.7596 8.54098 18.1167 9.26841 18.2614C9.99584 18.4061 10.7498 18.3319 11.4351 18.048C12.1203 17.7642 12.706 17.2836 13.118 16.6669C13.5301 16.0502 13.75 15.3252 13.75 14.5835C13.75 13.5889 13.3549 12.6351 12.6517 11.9318C11.9484 11.2286 10.9946 10.8335 10 10.8335ZM10 16.6668C9.58796 16.6668 9.18517 16.5446 8.84256 16.3157C8.49996 16.0868 8.23293 15.7614 8.07525 15.3808C7.91757 15.0001 7.87631 14.5812 7.9567 14.1771C8.03708 13.7729 8.2355 13.4017 8.52686 13.1104C8.81822 12.819 9.18944 12.6206 9.59356 12.5402C9.99769 12.4598 10.4166 12.5011 10.7973 12.6587C11.1779 12.8164 11.5033 13.0835 11.7322 13.4261C11.9611 13.7687 12.0833 14.1715 12.0833 14.5835C12.0833 15.136 11.8638 15.6659 11.4731 16.0566C11.0824 16.4473 10.5525 16.6668 10 16.6668Z" fill="#808080"/>
</svg>
