<svg width="44" height="44" viewBox="0 0 44 44" fill="none" xmlns="http://www.w3.org/2000/svg">
<g clip-path="url(#clip0_1_1092)">
<path d="M0 0.0771866H43.4353V43.5125H0V0.0771866Z" fill="#F7DF1E"/>
<path d="M11.4215 36.3743L14.7453 34.3621C15.3867 35.4988 15.9703 36.4609 17.3684 36.4609C18.7105 36.4609 19.5554 35.9366 19.5554 33.8955V20.0165H23.6377V33.9531C23.6377 38.1813 21.1588 40.1054 17.5431 40.1054C14.2787 40.1071 12.3835 38.4154 11.4215 36.3743Z" fill="black"/>
<path d="M25.855 35.9369L29.1788 34.0129C30.0543 35.4415 31.1911 36.4917 33.2017 36.4917C34.8933 36.4917 35.9707 35.6468 35.9707 34.4795C35.9707 33.0797 34.8627 32.5843 32.9964 31.7682L31.9766 31.3304C29.0312 30.0765 27.0783 28.502 27.0783 25.1782C27.0783 22.1174 29.4112 19.7844 33.0557 19.7844C35.65 19.7844 37.5164 20.6888 38.8584 23.0505L35.6805 25.0917C34.9815 23.8378 34.2231 23.3424 33.0574 23.3424C31.8613 23.3424 31.1045 24.1008 31.1045 25.0917C31.1045 26.3167 31.863 26.8121 33.6123 27.5705L34.632 28.0083C38.1017 29.4946 40.0546 31.0114 40.0546 34.4218C40.0546 38.0951 37.1685 40.1074 33.2899 40.1074C29.4995 40.1074 27.0511 38.2987 25.855 35.9369Z" fill="black"/>
</g>
<defs>
<clipPath id="clip0_1_1092">
<rect width="43.4355" height="43.4355" fill="white" transform="translate(0 0.0771866)"/>
</clipPath>
</defs>
</svg>
