<svg width="56" height="55" viewBox="0 0 56 55" fill="none" xmlns="http://www.w3.org/2000/svg">
<path d="M27.8059 0.00478949C27.3108 0.029728 26.8258 0.152472 26.3792 0.365822L6.91082 9.66801C6.40693 9.90865 5.96419 10.2588 5.61546 10.6924C5.26674 11.1261 5.02101 11.6321 4.89651 12.1728L0.0935323 33.0679C-0.0173754 33.5493 -0.0297876 34.0479 0.0570306 34.5342C0.143849 35.0204 0.328133 35.4845 0.598977 35.8989C0.664651 36.0002 0.735282 36.0982 0.810617 36.1927L14.2858 52.9471C14.6346 53.3806 15.0774 53.7306 15.5813 53.9712C16.0852 54.2117 16.6373 54.3365 17.1965 54.3364L38.8062 54.3314C39.3652 54.3318 39.9171 54.2074 40.421 53.9673C40.9249 53.7272 41.3678 53.3777 41.7168 52.9446L55.1871 36.1877C55.536 35.7539 55.782 35.2478 55.9065 34.7068C56.0311 34.1658 56.0312 33.6039 55.9066 33.0629L51.0962 12.1678C50.9717 11.6271 50.726 11.1211 50.3772 10.6874C50.0285 10.2538 49.5858 9.90367 49.0819 9.66303L29.611 0.365822C29.0493 0.0974452 28.4286 -0.0266967 27.8059 0.00478949Z" fill="#326CE5"/>
<path d="M27.9988 7.11566C27.3552 7.11573 26.8334 7.69538 26.8335 8.4104C26.8335 8.42137 26.8358 8.43186 26.836 8.44277C26.8351 8.53992 26.8304 8.65696 26.8335 8.74155C26.8489 9.15396 26.9388 9.46959 26.9929 9.84955C27.0909 10.6628 27.173 11.3369 27.1223 11.9635C27.073 12.1997 26.899 12.4158 26.7439 12.566L26.7165 13.059C26.0172 13.1169 25.3132 13.223 24.6101 13.3827C21.5844 14.0697 18.9793 15.6282 16.996 17.7325C16.8673 17.6447 16.6422 17.4832 16.5752 17.4337C16.3672 17.4618 16.1569 17.526 15.883 17.3665C15.3616 17.0155 14.8866 16.5309 14.3119 15.9473C14.0486 15.6681 13.8579 15.4022 13.545 15.1331C13.474 15.072 13.3656 14.9893 13.2861 14.9264C13.0415 14.7314 12.753 14.6297 12.4744 14.6202C12.1162 14.6079 11.7713 14.7479 11.5457 15.031C11.1445 15.5342 11.2729 16.3033 11.832 16.749C11.8377 16.7535 11.8437 16.757 11.8494 16.7614C11.9263 16.8237 12.0203 16.9035 12.0909 16.9557C12.4229 17.2008 12.7262 17.3263 13.057 17.5209C13.7539 17.9513 14.3317 18.3081 14.79 18.7384C14.9689 18.9292 15.0002 19.2653 15.024 19.4107L15.3975 19.7443C13.3982 22.7532 12.4728 26.4697 13.0197 30.2566L12.5317 30.3985C12.403 30.5646 12.2213 30.8259 12.0312 30.904C11.4316 31.0928 10.7568 31.1621 9.94218 31.2476C9.55971 31.2794 9.2297 31.2604 8.82423 31.3372C8.73498 31.3541 8.61064 31.3865 8.51299 31.4094C8.5096 31.4101 8.50643 31.4111 8.50303 31.4119C8.49771 31.4131 8.49072 31.4157 8.4856 31.4169C7.79878 31.5828 7.35757 32.2141 7.49961 32.8361C7.64169 33.4582 8.31256 33.8366 9.0035 33.6876C9.00848 33.6865 9.01573 33.6863 9.02093 33.6851C9.02873 33.6834 9.03559 33.6796 9.04333 33.6777C9.13965 33.6565 9.26035 33.633 9.34461 33.6105C9.74326 33.5037 10.032 33.3469 10.3904 33.2096C11.1614 32.933 11.8 32.702 12.4221 32.612C12.6819 32.5917 12.9557 32.7723 13.0919 32.8486L13.5998 32.7614C14.7687 36.3853 17.2182 39.3144 20.32 41.1523L20.1084 41.6602C20.1846 41.8575 20.2688 42.1243 20.212 42.3191C19.9858 42.9056 19.5984 43.5247 19.1572 44.2148C18.9436 44.5337 18.725 44.7812 18.5323 45.1461C18.4861 45.2334 18.4274 45.3675 18.3829 45.4598C18.0834 46.1006 18.3031 46.8386 18.8784 47.1156C19.4573 47.3942 20.1758 47.1003 20.4868 46.4582C20.4873 46.4573 20.4889 46.4566 20.4893 46.4557C20.4896 46.455 20.489 46.4539 20.4893 46.4532C20.5336 46.3622 20.5963 46.2426 20.6337 46.157C20.7988 45.7787 20.8537 45.4546 20.9698 45.0888C21.2782 44.3143 21.4476 43.5017 21.872 42.9954C21.9882 42.8567 22.1777 42.8034 22.3741 42.7508L22.6381 42.2727C25.3421 43.3107 28.3689 43.5892 31.3925 42.9027C32.0822 42.7461 32.7481 42.5434 33.3918 42.3001C33.466 42.4317 33.6039 42.6846 33.6408 42.7483C33.8405 42.8133 34.0584 42.8468 34.2359 43.1093C34.5535 43.6519 34.7706 44.2937 35.0352 45.0689C35.1513 45.4347 35.2087 45.7588 35.3738 46.137C35.4114 46.2232 35.4739 46.3446 35.5182 46.4358C35.8285 47.08 36.5494 47.3749 37.1292 47.0956C37.7044 46.8185 37.9243 46.0806 37.6246 45.4399C37.5801 45.3476 37.5189 45.2135 37.4728 45.1261C37.28 44.7612 37.0614 44.5163 36.8478 44.1974C36.4066 43.5073 36.0407 42.9339 35.8145 42.3474C35.7199 42.0449 35.8305 41.8568 35.9041 41.6602C35.86 41.6097 35.7656 41.324 35.7099 41.1896C38.9334 39.2863 41.311 36.248 42.4276 32.739C42.5784 32.7627 42.8405 32.8091 42.9256 32.8261C43.1008 32.7106 43.262 32.5597 43.5779 32.5846C44.2001 32.6746 44.8386 32.9057 45.6097 33.1822C45.9681 33.3195 46.2568 33.4788 46.6554 33.5856C46.7397 33.6081 46.8604 33.6292 46.9567 33.6503C46.9645 33.6522 46.9713 33.656 46.9791 33.6578C46.9843 33.6589 46.9916 33.6591 46.9965 33.6603C47.6875 33.809 48.3585 33.4309 48.5004 32.8087C48.6423 32.1867 48.2013 31.5552 47.5144 31.3895C47.4145 31.3668 47.2728 31.3282 47.1758 31.3098C46.7703 31.233 46.4403 31.252 46.0579 31.2202C45.2432 31.1348 44.5684 31.0654 43.9689 30.8766C43.7244 30.7817 43.5505 30.4908 43.4659 30.3711L42.9953 30.2342C43.2393 28.469 43.1735 26.6319 42.7513 24.7938C42.3252 22.9386 41.5721 21.2418 40.5677 19.7468C40.6884 19.6371 40.9164 19.4352 40.981 19.3758C40.9999 19.1667 40.9837 18.9475 41.2001 18.716C41.6583 18.2857 42.2362 17.9289 42.9331 17.4985C43.2638 17.3038 43.5696 17.1784 43.9016 16.9333C43.9767 16.8778 44.0792 16.79 44.1581 16.7266C44.717 16.2807 44.8457 15.5117 44.4444 15.0086C44.0431 14.5055 43.2654 14.4581 42.7065 14.904C42.6269 14.967 42.519 15.0492 42.4475 15.1107C42.1347 15.3798 41.9415 15.6456 41.6782 15.9249C41.1035 16.5086 40.6285 16.9955 40.107 17.3466C39.8811 17.4781 39.5501 17.4326 39.3999 17.4238L38.9567 17.74C36.4295 15.0899 32.9886 13.3956 29.2836 13.0665C29.2732 12.9112 29.2596 12.6305 29.2562 12.5461C29.1045 12.4009 28.9213 12.277 28.8752 11.9635C28.8245 11.3369 28.9092 10.6628 29.0072 9.84955C29.0613 9.46959 29.1512 9.15396 29.1665 8.74155C29.17 8.6478 29.1644 8.51177 29.164 8.4104C29.164 7.69538 28.6423 7.1156 27.9988 7.11566H27.9988ZM26.5397 16.1539L26.1936 22.2666L26.1687 22.279C26.1455 22.8259 25.6954 23.2625 25.1429 23.2625C24.9165 23.2625 24.7076 23.1898 24.5379 23.0658L24.5279 23.0708L19.5158 19.5177C21.0562 18.003 23.0265 16.8836 25.2973 16.368C25.7121 16.2739 26.1267 16.204 26.5397 16.1539ZM29.4603 16.1539C32.1114 16.48 34.5632 17.6804 36.442 19.5202L31.4622 23.0509L31.4448 23.0434C31.0028 23.3662 30.38 23.2861 30.0355 22.8542C29.8944 22.6772 29.8203 22.4692 29.8114 22.2591L29.8064 22.2566L29.4603 16.1539ZM17.6982 21.801L22.2746 25.8943L22.2696 25.9192C22.6826 26.2783 22.7436 26.9015 22.399 27.3335C22.2579 27.5104 22.069 27.6291 21.8662 27.6845L21.8612 27.7045L15.9951 29.3976C15.6965 26.6675 16.34 24.0136 17.6982 21.801ZM38.267 21.8034C38.947 22.9056 39.4619 24.1365 39.7684 25.471C40.0713 26.7895 40.1473 28.1057 40.0224 29.3777L34.1264 27.6796L34.1214 27.6547C33.5934 27.5104 33.2689 26.9733 33.3919 26.4346C33.4422 26.2139 33.5594 26.0273 33.718 25.8893L33.7155 25.8769L38.267 21.8034H38.267ZM27.0601 26.2105H28.935L30.1002 27.6671L29.6819 29.4847L27.9988 30.2939L26.3106 29.4822L25.8923 27.6646L27.0601 26.2105ZM33.0707 31.1953C33.1503 31.1912 33.2297 31.1984 33.3072 31.2127L33.3172 31.2002L39.385 32.2261C38.497 34.721 36.7977 36.8824 34.5272 38.3288L32.1718 32.6394L32.1793 32.6294C31.9629 32.1267 32.1794 31.5371 32.6773 31.2973C32.8047 31.236 32.9379 31.202 33.0707 31.1953H33.0707ZM22.8796 31.2202C23.3426 31.2267 23.758 31.548 23.8656 32.0194C23.916 32.2401 23.8914 32.4587 23.8083 32.6518L23.8257 32.6743L21.4952 38.3064C19.3163 36.9081 17.5808 34.8146 16.6524 32.246L22.668 31.2251L22.6779 31.2376C22.7452 31.2252 22.8134 31.2192 22.8796 31.2202V31.2202ZM27.9614 33.6876C28.1227 33.6817 28.2864 33.7148 28.442 33.7897C28.6459 33.8879 28.8034 34.0425 28.9026 34.2279H28.925L31.8905 39.5862C31.5056 39.7152 31.1099 39.8254 30.7053 39.9173C28.4373 40.4322 26.1766 40.2762 24.1295 39.5787L27.0875 34.2304H27.0925C27.27 33.8986 27.6066 33.7007 27.9614 33.6876Z" fill="white" stroke="white" stroke-width="0.25"/>
</svg>
