<svg width="168" height="168" viewBox="0 0 168 168" fill="none" xmlns="http://www.w3.org/2000/svg">
<path d="M30.4684 61.623C29.0952 61.1792 28.3525 59.6989 28.761 58.3297C29.2062 56.9604 30.6916 56.2202 32.0648 56.6654C36.4103 58.0346 40.1957 60.6988 42.9813 64.1775C45.1716 66.9161 46.7693 70.1716 47.512 73.7612C48.4767 73.6137 49.4426 73.5393 50.4086 73.5393C56.0149 73.5393 61.1383 75.8341 64.8154 79.4968C68.4912 83.1595 70.756 88.2294 70.756 93.8541C70.756 95.2964 69.606 96.4438 68.1571 96.4438C66.7095 96.4438 65.5216 95.2964 65.5216 93.8541C65.5216 89.6731 63.8508 85.8981 61.1031 83.1961C58.3554 80.4575 54.6052 78.7567 50.4099 78.7567C47.8097 78.7567 45.3974 79.4224 43.2815 80.5332C41.0898 81.7172 39.2337 83.4193 37.8226 85.4556C37.0433 86.6774 35.4091 86.9724 34.2212 86.1944C32.9955 85.3812 32.6979 83.7522 33.4785 82.5682C35.3347 79.7931 37.8592 77.5362 40.8301 75.9437C41.3496 75.6474 41.907 75.3889 42.463 75.167C41.907 72.281 40.6813 69.6168 38.8995 67.4343C36.7431 64.731 33.81 62.696 30.4684 61.623ZM57.6844 134.704C56.4966 135.482 54.8623 135.149 54.083 133.928C53.3403 132.706 53.6745 131.116 54.8989 130.338C56.6075 129.228 58.5016 128.377 60.5431 127.821C62.5102 127.266 64.5909 126.934 66.7434 126.934C72.3132 126.934 77.3257 128.931 81.0015 132.114C84.7882 135.406 87.0908 139.958 87.0908 145.028C87.0908 146.47 85.9408 147.618 84.4919 147.618C83.0443 147.618 81.8551 146.47 81.8551 145.028C81.8551 141.513 80.2222 138.367 77.5854 136.036C74.8377 133.669 71.0131 132.189 66.7434 132.189C65.0726 132.189 63.4775 132.411 61.9542 132.817C60.3956 133.261 58.9845 133.928 57.6844 134.704ZM24.3791 92.7054C25.7901 92.5579 27.0902 93.5943 27.2377 95.0367C27.3487 96.4791 26.3096 97.7387 24.862 97.8875C22.8571 98.0729 20.9265 98.0729 19.069 97.851C17.175 97.6291 15.3554 97.1826 13.6114 96.5182C12.2748 96.0366 11.5699 94.5198 12.0894 93.187C12.5711 91.8543 14.0931 91.152 15.4311 91.6703C16.7312 92.1519 18.1788 92.4848 19.7008 92.6701C21.1862 92.8529 22.7461 92.8529 24.3791 92.7054ZM55.3453 12.6302C55.7173 11.2609 57.1284 10.4099 58.5016 10.744C59.9126 11.0769 60.7663 12.4827 60.4321 13.8886C60.2468 14.6287 60.098 15.7761 60.2102 17.1453C60.2846 18.1439 60.5065 19.2548 60.953 20.2899C61.5103 21.6226 60.842 23.1394 59.5054 23.6942C58.2053 24.2124 56.6467 23.5832 56.1272 22.2505C55.4589 20.6227 55.1247 19.0315 55.0137 17.5513C54.8636 15.5907 55.0868 13.852 55.3453 12.6302ZM63.3287 50.5956C61.8811 50.5956 60.6919 49.4117 60.6919 47.968C60.6919 46.5256 61.8798 45.3417 63.3287 45.3417C66.3361 45.3417 69.0838 46.5621 71.0523 48.5606C73.0194 50.5225 74.2451 53.2611 74.2451 56.2568C74.2451 59.2538 73.0194 61.9924 71.0523 63.9543C69.0838 65.9514 66.3361 67.1732 63.3287 67.1732C61.8811 67.1732 60.6919 65.9893 60.6919 64.5456C60.6919 63.1019 61.8798 61.9558 63.3287 61.9558C64.8885 61.9558 66.2996 61.2901 67.3386 60.2903C68.379 59.2551 69.0107 57.848 69.0107 56.2568C69.0107 54.7035 68.379 53.2598 67.3386 52.2612C66.2996 51.2248 64.8885 50.5956 63.3287 50.5956ZM22.5986 124.493C21.8924 125.751 20.296 126.195 19.0338 125.493C17.8094 124.789 17.363 123.196 18.0678 121.938C19.1447 120.088 20.4814 118.35 22.0034 116.87C23.5632 115.388 25.3085 114.131 27.239 113.132C28.5013 112.503 30.0977 112.985 30.7673 114.28C31.3978 115.538 30.9161 117.129 29.616 117.794C28.1684 118.534 26.8318 119.496 25.6426 120.643C24.4535 121.789 23.4144 123.084 22.5986 124.493ZM61.2127 113.391C62.4384 112.689 64.0361 113.095 64.7776 114.353C65.4824 115.575 65.0739 117.202 63.8116 117.905C60.6188 119.756 56.9796 120.125 53.6758 119.237C50.4086 118.35 47.4376 116.24 45.5815 113.059C43.7253 109.877 43.3533 106.251 44.2448 102.959C45.1363 99.6654 47.2901 96.7036 50.483 94.8905C51.7087 94.1504 53.3051 94.5929 54.0465 95.8512C54.7527 97.073 54.3063 98.6642 53.0819 99.4056C51.1513 100.516 49.8512 102.292 49.2951 104.289C48.7756 106.287 48.9975 108.508 50.1109 110.432C51.2257 112.356 53.0453 113.651 55.0503 114.207C57.054 114.722 59.2456 114.5 61.2127 113.391ZM41.83 38.5331C40.9384 37.3857 41.1238 35.758 42.2751 34.869C43.3898 33.9814 45.0606 34.1655 45.9509 35.3129C46.1741 35.6092 46.4338 35.9055 46.6571 36.1274C47.6608 37.0907 48.8487 37.8308 50.2219 37.9418C51.6329 38.0893 53.3403 37.5711 55.3074 36.0164C55.827 35.5726 56.3843 35.1288 56.9039 34.6106L56.9404 34.5362C59.5028 32.1318 62.3249 30.799 65.0713 30.2808C68.3385 29.7261 71.4582 30.2808 73.9449 31.5757C75.245 32.2414 75.7266 33.8326 75.0583 35.091C74.39 36.3858 72.8301 36.8675 71.5313 36.2005C70.0093 35.386 68.0409 35.0544 65.9994 35.4238C64.1797 35.7567 62.287 36.6456 60.5418 38.3099C59.8735 39.0135 59.2051 39.6048 58.5368 40.0864C55.3805 42.5652 52.4096 43.3798 49.7363 43.12C47.0252 42.8981 44.7239 41.5667 42.9786 39.828C42.574 39.3842 42.1654 38.9769 41.83 38.5331Z" fill="#24A4B1"/>
<path d="M86.4233 32.1688C84.9757 32.1688 83.8244 30.9848 83.8244 29.5412C83.8244 28.0975 84.9757 26.9514 86.4233 26.9514H98.1934C98.6398 25.6565 99.3447 24.547 100.274 23.6215C101.796 22.1034 103.874 21.1427 106.215 21.1427C108.554 21.1427 110.633 22.1047 112.192 23.6215C113.715 25.1383 114.643 27.2477 114.643 29.5425C114.643 31.8738 113.715 33.9819 112.192 35.4987C110.633 37.0168 108.554 37.9422 106.215 37.9422C103.874 37.9422 101.796 37.0181 100.274 35.4987C99.3447 34.5745 98.6398 33.4271 98.1934 32.1688H86.4233ZM123.925 113.206C125.373 113.206 126.562 112.022 126.562 110.578C126.562 109.135 125.374 107.989 123.925 107.989C122.476 107.989 121.326 109.136 121.326 110.578C121.326 112.021 122.476 113.206 123.925 113.206ZM123.925 117.978C125.965 117.978 127.823 117.165 129.197 115.796C130.534 114.463 131.35 112.613 131.35 110.578C131.35 108.543 130.534 106.692 129.197 105.361C127.823 104.028 125.965 103.215 123.925 103.215C121.882 103.215 120.026 104.028 118.69 105.361C117.353 106.694 116.537 108.543 116.537 110.578C116.537 112.613 117.353 114.464 118.69 115.796C120.025 117.165 121.881 117.978 123.925 117.978ZM84.4927 104.733C83.0451 104.733 81.856 103.549 81.856 102.105C81.856 100.662 83.0451 99.5157 84.4927 99.5157H105.136C105.583 99.5157 105.954 99.5901 106.324 99.7742L113.973 102.808C114.271 102.438 114.642 102.031 114.976 101.662C117.279 99.4047 120.434 97.9611 123.924 97.9611C127.413 97.9611 130.607 99.4034 132.871 101.662C135.173 103.955 136.584 107.1 136.584 110.578C136.584 114.057 135.173 117.239 132.871 119.495C130.607 121.79 127.412 123.196 123.924 123.196C120.432 123.196 117.277 121.79 114.976 119.495C112.711 117.238 111.301 114.057 111.301 110.578C111.301 109.542 111.412 108.507 111.672 107.507L104.655 104.732L84.4927 104.733ZM84.4927 137.405C83.0451 137.405 81.856 136.259 81.856 134.817C81.856 133.375 83.0451 132.189 84.4927 132.189H100.124C100.533 130.931 101.239 129.784 102.166 128.858C103.688 127.341 105.805 126.416 108.144 126.416C110.445 126.416 112.562 127.341 114.084 128.858C115.606 130.375 116.572 132.484 116.572 134.816C116.572 137.146 115.606 139.218 114.084 140.735C112.562 142.252 110.445 143.214 108.144 143.214C105.805 143.214 103.688 142.252 102.166 140.735C101.237 139.81 100.531 138.699 100.124 137.404L84.4927 137.405ZM110.372 132.559C109.816 132.004 108.998 131.633 108.145 131.633C107.254 131.633 106.435 132.004 105.88 132.559C105.287 133.15 104.951 133.928 104.951 134.816C104.951 135.703 105.287 136.48 105.88 137.072C106.437 137.629 107.255 137.998 108.145 137.998C108.998 137.998 109.816 137.629 110.372 137.072C110.967 136.481 111.301 135.703 111.301 134.816C111.301 133.928 110.967 133.15 110.372 132.559ZM123.925 49.3743C125.373 49.3743 126.562 50.5216 126.562 51.9653C126.562 53.409 125.374 54.5929 123.925 54.5929C122.476 54.5929 121.326 53.409 121.326 51.9653C121.326 50.5216 122.476 49.3743 123.925 49.3743ZM137.699 78.4595C139.147 78.4595 140.336 79.6056 140.336 81.0493C140.336 82.493 139.148 83.6769 137.699 83.6769C136.25 83.6769 135.1 82.493 135.1 81.0493C135.1 79.6056 136.251 78.4595 137.699 78.4595ZM84.4927 83.6769C83.0451 83.6769 81.856 82.493 81.856 81.0493C81.856 79.6056 83.0451 78.4595 84.4927 78.4595H125.336C125.855 76.0159 127.08 73.8334 128.751 72.1313C131.054 69.8744 134.21 68.432 137.699 68.432C141.226 68.432 144.382 69.8744 146.647 72.1313C148.95 74.4261 150.361 77.5706 150.361 81.0493C150.361 84.528 148.95 87.7103 146.647 89.9673C144.382 92.262 141.226 93.6678 137.699 93.6678C134.209 93.6678 131.052 92.262 128.751 89.9673C127.08 88.2651 125.855 86.1192 125.336 83.6769H84.4927ZM132.465 86.3045C133.801 87.6372 135.658 88.4518 137.7 88.4518C139.78 88.4518 141.637 87.6372 142.974 86.3045C144.309 84.9365 145.125 83.0856 145.125 81.0506C145.125 79.0156 144.309 77.1659 142.974 75.8332C141.637 74.5005 139.78 73.6872 137.7 73.6872C135.659 73.6872 133.803 74.5018 132.465 75.8332C129.568 78.7193 129.568 83.4184 132.465 86.3045ZM84.4927 63.0658C83.0451 63.0658 81.856 61.8819 81.856 60.4382C81.856 58.9958 83.0451 57.8484 84.4927 57.8484H104.655L111.672 55.0733C111.412 54.0734 111.301 53.0383 111.301 51.9653C111.301 48.4866 112.711 45.3421 114.976 43.0474C117.279 40.7904 120.434 39.3846 123.924 39.3846C127.413 39.3846 130.607 40.7904 132.871 43.0474C135.173 45.3421 136.584 48.4866 136.584 51.9653C136.584 55.444 135.173 58.6264 132.871 60.8833C130.607 63.1768 127.412 64.5839 123.924 64.5839C120.432 64.5839 117.277 63.1768 114.976 60.8833C114.642 60.5139 114.271 60.1432 113.973 59.7359L106.324 62.7708C105.954 62.9562 105.583 63.0671 105.136 63.0671L84.4927 63.0658ZM129.197 46.748C127.823 45.4152 125.965 44.602 123.925 44.602C121.882 44.602 120.026 45.4165 118.69 46.748C117.353 48.0807 116.537 49.9303 116.537 51.9653C116.537 54.0003 117.353 55.8513 118.69 57.2193C120.025 58.552 121.881 59.3652 123.925 59.3652C125.965 59.3652 127.823 58.5507 129.197 57.2193C130.534 55.85 131.35 54.0003 131.35 51.9653C131.35 49.9303 130.534 48.0807 129.197 46.748ZM108.479 27.2843C107.884 26.7295 107.105 26.3588 106.215 26.3588C105.324 26.3588 104.544 26.7295 103.951 27.2843C103.393 27.8756 103.022 28.6522 103.022 29.5412C103.022 30.4288 103.393 31.2054 103.951 31.7981C104.544 32.3528 105.324 32.7222 106.215 32.7222C107.105 32.7222 107.884 32.3528 108.479 31.7981C109.035 31.2054 109.406 30.4288 109.406 29.5412C109.405 28.6535 109.034 27.8756 108.479 27.2843Z" fill="#24A4B1"/>
<path d="M81.8567 13.5555V144.842C81.8567 153.354 76.4357 161.162 67.6731 162.122C65.2961 162.382 62.846 162.086 60.5813 161.273C56.1993 159.645 52.4869 155.944 51.1868 150.134C50.8148 148.469 48.9221 147.618 47.4001 148.431C43.1669 150.429 38.8607 151.058 34.9616 150.54C31.3968 150.096 28.1296 148.616 25.6051 146.396C23.0806 144.175 21.2988 141.142 20.5561 137.478C19.8134 133.668 20.2219 129.189 22.189 124.157C22.7086 122.824 22.0415 121.307 20.667 120.789C20.2585 120.642 19.8512 120.604 19.4413 120.642C16.2485 121.012 13.4643 119.681 11.4214 117.459C10.0469 115.943 9.00788 113.981 8.41396 111.873C7.81873 109.763 7.67123 107.47 8.07979 105.286C8.74812 101.772 10.9385 98.4408 15.0607 96.4423C17.1401 95.4424 16.9912 92.5198 14.9119 91.6688C11.719 90.2264 9.30549 87.6353 7.74563 84.5273C6.33457 81.6047 5.66625 78.237 5.96386 74.9058C6.22362 71.6138 7.37492 68.3935 9.5287 65.7293C11.7934 62.9542 15.2095 60.7339 19.8878 59.6609C21.5586 59.2536 22.3744 57.4405 21.6317 55.9616C20.2206 53.0755 19.5157 49.7443 19.5901 46.451C19.6659 43.4905 20.3707 40.6045 21.7439 38.0891C23.0793 35.6468 25.1221 33.5753 27.8333 32.206C30.2103 31.0221 33.1433 30.3929 36.6338 30.466C38.0814 30.5026 39.2705 29.3552 39.3071 27.9128C39.3071 27.7653 39.3071 27.5799 39.2705 27.3959C38.9364 25.1011 39.2705 22.7698 40.1621 20.6604C40.8682 19.0327 41.9073 17.589 43.2439 16.4794C44.5793 15.4065 46.2135 14.6298 48.1076 14.3335C50.4102 13.9628 53.1566 14.3335 56.275 15.6662C57.6116 16.221 59.1715 15.5918 59.7289 14.2604C61.585 10.2269 64.4816 7.67373 67.5269 6.45194C69.5319 5.63742 71.6112 5.41682 73.5418 5.67528C77.8468 6.22873 81.486 9.15136 81.8567 13.5555ZM84.3081 156.241C85.979 159.57 88.3168 162.16 91.0658 164.011C93.8122 165.861 96.9319 166.972 100.125 167.303C103.318 167.673 106.585 167.267 109.594 166.156C114.754 164.27 119.21 160.273 121.437 154.242C125.744 155.795 130.051 156.239 134.097 155.722C138.74 155.093 142.973 153.206 146.277 150.282C149.619 147.321 151.994 143.289 152.96 138.478C153.702 134.703 153.553 130.411 152.254 125.749C155.634 125.233 158.567 123.453 160.831 120.976C162.762 118.829 164.21 116.164 165.027 113.28C165.807 110.43 165.991 107.324 165.435 104.325C164.691 100.515 162.761 96.924 159.383 94.1489C161.907 92.1883 163.912 89.6716 165.323 86.8234C167.179 83.0484 167.996 78.7199 167.662 74.5011C167.292 70.2092 165.768 65.9904 162.947 62.4752C160.496 59.4416 157.081 56.9615 152.626 55.4081C153.627 52.5221 154.112 49.4141 154.037 46.3048C153.925 42.5677 153.033 38.8305 151.215 35.5737C149.394 32.2439 146.61 29.3943 142.898 27.5447C140.484 26.3608 137.662 25.5841 134.469 25.3243C134.433 22.9917 133.95 20.6983 133.022 18.6267C132.019 16.2588 130.461 14.1129 128.454 12.4838C126.451 10.8196 123.963 9.63433 121.103 9.19052C118.466 8.78325 115.533 9.00516 112.34 10.005C109.89 5.82278 106.436 3.08551 102.76 1.60527C99.9394 0.495747 96.9685 0.125035 94.1829 0.495747C91.3243 0.865154 88.6888 2.01253 86.5716 3.82563C85.7557 4.49135 85.0496 5.30587 84.3812 6.19349C82.0421 3.12206 78.3284 1.05051 74.2075 0.495747C71.4233 0.125035 68.4524 0.495747 65.6303 1.60527C61.9545 3.08551 58.5019 5.82278 56.0505 10.005C52.8576 9.00516 49.9246 8.78325 47.2878 9.19052C44.4292 9.63433 41.9412 10.8196 39.8997 12.4838C37.8947 14.1116 36.3714 16.2588 35.3324 18.6267C34.4408 20.6983 33.9579 22.993 33.9213 25.3243C30.6906 25.5828 27.9064 26.3595 25.4928 27.5447C21.7426 29.3943 18.9949 32.2439 17.1753 35.5737C15.3557 38.8305 14.4641 42.5677 14.3532 46.3048C14.2788 49.4128 14.7617 52.5221 15.7642 55.4081C11.3079 56.9615 7.89313 59.4416 5.44173 62.4752C2.58307 65.9917 1.06106 70.2092 0.726898 74.5011C0.392735 78.7199 1.20987 83.0484 3.06604 86.8234C4.4771 89.6729 6.48207 92.1883 9.00657 94.1489C5.59054 96.924 3.65996 100.515 2.95378 104.325C2.35986 107.324 2.54522 110.431 3.36235 113.28C4.17948 116.166 5.62709 118.83 7.55766 120.976C9.8224 123.453 12.7555 125.233 16.135 125.749C14.8348 130.411 14.6873 134.703 15.4288 138.478C16.3947 143.289 18.7704 147.321 22.112 150.282C25.4171 153.206 29.649 155.093 34.2907 155.722C38.3007 156.239 42.6448 155.797 46.9524 154.242C49.1805 160.273 53.6356 164.27 58.7969 166.156C61.8043 167.267 65.0716 167.673 68.2657 167.303C75.5076 166.489 81.1884 162.16 84.3081 156.241ZM87.0924 13.5555C87.3535 11.0389 88.3912 9.07695 89.9511 7.74552C91.2864 6.63599 92.9964 5.89588 94.8526 5.67397C96.7831 5.41552 98.8625 5.63742 100.83 6.45064C104.284 7.81992 107.254 10.8914 108.664 14.2956C109.258 15.6284 110.78 16.2197 112.118 15.6649C115.238 14.3322 117.986 13.9628 120.287 14.3322C122.181 14.6285 123.815 15.4052 125.152 16.4781C126.488 17.5877 127.529 19.0314 128.234 20.6591C129.125 22.7685 129.458 25.0998 129.125 27.3946C128.826 29.0223 130.09 30.5026 131.724 30.466C135.251 30.3916 138.184 31.0208 140.561 32.206C143.271 33.5753 145.314 35.6468 146.65 38.0891C148.024 40.6058 148.73 43.4918 148.803 46.451C148.879 49.7443 148.172 53.0755 146.724 55.9616C146.055 57.6637 146.687 59.2184 148.507 59.6609C153.184 60.7339 156.601 62.9542 158.866 65.7293C161.019 68.3935 162.171 71.6124 162.429 74.9058C162.689 78.237 162.057 81.6034 160.647 84.5273C159.088 87.6353 156.675 90.2264 153.443 91.6688C152.886 91.9285 152.366 92.3723 152.107 92.9636C151.478 94.2585 151.996 95.8132 153.296 96.4423C157.455 98.4408 159.608 101.772 160.313 105.286C160.722 107.47 160.572 109.763 159.979 111.873C158.605 116.795 154.558 121.309 148.988 120.642H148.952C148.543 120.605 148.097 120.642 147.688 120.789C146.353 121.307 145.685 122.826 146.203 124.157C148.171 129.189 148.58 133.668 147.8 137.478C147.096 141.142 145.275 144.175 142.788 146.396C140.262 148.616 136.995 150.096 133.431 150.54C129.495 151.057 125.225 150.429 120.955 148.431C119.47 147.618 117.576 148.467 117.205 150.134C115.905 155.944 112.191 159.645 107.811 161.273C105.547 162.086 103.096 162.383 100.719 162.122C98.343 161.864 96.0404 161.051 93.9989 159.681C89.9889 157.017 87.0924 152.058 87.0924 144.842V13.5555Z" fill="#24A4B1"/>
</svg>
