<svg width="21" height="21" viewBox="0 0 21 21" fill="none" xmlns="http://www.w3.org/2000/svg">
<path d="M13.8348 11.1426C12.4475 11.1426 11.3193 12.2958 11.3193 13.714C11.3193 15.1321 12.4475 16.2853 13.8348 16.2853C15.2221 16.2853 16.3503 15.1321 16.3503 13.714C16.3503 12.2958 15.2221 11.1426 13.8348 11.1426ZM13.8348 14.5711C13.3724 14.5711 12.9963 14.1867 12.9963 13.714C12.9963 13.2412 13.3724 12.8568 13.8348 12.8568C14.2972 12.8568 14.6733 13.2412 14.6733 13.714C14.6733 14.1867 14.2972 14.5711 13.8348 14.5711Z" fill="#808080"/>
<path d="M6.28891 11.1426C4.90163 11.1426 3.77344 12.2958 3.77344 13.714C3.77344 15.1321 4.90163 16.2853 6.28891 16.2853C7.6762 16.2853 8.80439 15.1321 8.80439 13.714C8.80439 12.2958 7.6762 11.1426 6.28891 11.1426ZM6.28891 14.5711C5.82648 14.5711 5.45042 14.1867 5.45042 13.714C5.45042 13.2412 5.82648 12.8568 6.28891 12.8568C6.75134 12.8568 7.1274 13.2412 7.1274 13.714C7.1274 14.1867 6.75134 14.5711 6.28891 14.5711Z" fill="#808080"/>
<path d="M18.1546 8.2916L13.5387 7.24591C11.3024 6.73935 8.9031 6.72049 6.58551 7.24591L1.96752 8.29203C0.809144 8.55731 0 9.59057 0 10.8043V16.9284C0 18.1421 0.809144 19.1749 1.9692 19.4411L6.59264 20.4881L6.89408 20.5528C6.95067 20.5652 7.00769 20.5712 7.06429 20.5712C7.26721 20.5712 7.46593 20.4958 7.62063 20.3552L9.43177 18.7138C9.44435 18.7027 9.45651 18.6907 9.46825 18.6787C9.79484 18.3448 10.3277 18.344 10.6555 18.6791C10.6673 18.6907 10.6799 18.7027 10.692 18.7138L12.5032 20.3552C12.7019 20.5352 12.9723 20.6085 13.2301 20.5532L18.1563 19.4402C19.3146 19.1749 20.1238 18.1421 20.1238 16.9284V10.8043C20.1238 9.59057 19.3147 8.55731 18.1546 8.2916ZM18.4468 16.9284C18.4468 17.3338 18.1764 17.6793 17.7915 17.7671L13.2985 18.785L11.8219 17.4466C10.8459 16.4707 9.27875 16.4707 8.30232 17.4466L6.82574 18.785L2.33436 17.768C1.9474 17.6793 1.67698 17.3338 1.67698 16.9284V10.8043C1.67698 10.3988 1.9474 10.0534 2.33184 9.96514L6.94816 8.91945C8.94712 8.46646 11.0962 8.44803 13.1756 8.91945L17.7894 9.96471C18.1764 10.0534 18.4468 10.3988 18.4468 10.8043V16.9284Z" fill="#808080"/>
<path d="M15.7196 2.79337C15.9695 2.39438 15.8551 1.86467 15.4652 1.60925C13.8548 0.556274 11.9867 0 10.0623 0C8.13842 0 6.27026 0.556274 4.65952 1.60925C4.2692 1.86425 4.15516 2.39438 4.40462 2.79294C4.56477 3.04879 4.83518 3.1885 5.11188 3.1885C5.26658 3.1885 5.42296 3.14479 5.56257 3.05351C6.90332 2.17753 8.45914 1.71425 10.0623 1.71425C11.6655 1.71425 13.2214 2.17753 14.5617 3.05351C14.9512 3.30893 15.4706 3.19236 15.7196 2.79337Z" fill="#808080"/>
<path d="M10.0622 3C8.69673 3 7.37275 3.39513 6.23408 4.14298C5.8446 4.39883 5.7314 4.92896 5.98169 5.32752C6.14184 5.58252 6.41184 5.72137 6.68812 5.72137C6.84324 5.72137 7.00046 5.67723 7.14049 5.58552C8.00874 5.01553 9.01871 4.71425 10.0622 4.71425C11.1057 4.71425 12.1161 5.01553 12.9839 5.58552C13.3747 5.8418 13.8924 5.72651 14.1427 5.32752C14.393 4.92939 14.2802 4.39883 13.8903 4.14298C12.7517 3.39513 11.4281 3 10.0622 3Z" fill="#808080"/>
</svg>
