<svg width="25" height="13" viewBox="0 0 25 13" fill="none" xmlns="http://www.w3.org/2000/svg">
<path d="M1.97686 2.64014H5.68173C6.76915 2.64927 7.55712 2.96279 8.04566 3.58018C8.5342 4.19757 8.6954 5.04085 8.52951 6.11C8.46508 6.59854 8.32215 7.07769 8.10096 7.54771C7.8889 8.01774 7.59416 8.44159 7.21621 8.81954C6.75532 9.29869 6.26235 9.60282 5.73703 9.73193C5.21171 9.86104 4.66787 9.92547 4.10578 9.92547H2.44688L1.92156 12.5521H0L1.97686 2.64014M3.59428 4.21609L2.76483 8.36334C2.82013 8.37247 2.87543 8.37716 2.93072 8.37716C2.99515 8.37716 3.05983 8.37716 3.12426 8.37716C4.00901 8.38629 4.74638 8.29891 5.33613 8.1145C5.92587 7.92097 6.32234 7.24828 6.52501 6.09618C6.6909 5.12849 6.525 4.57082 6.02733 4.42345C5.53879 4.27608 4.9261 4.20696 4.18872 4.21609C4.07813 4.22522 3.97223 4.22992 3.87077 4.22992C3.77869 4.22992 3.68192 4.22992 3.58046 4.22992L3.59428 4.21609" fill="#808080"/>
<path d="M10.7182 0H12.626L12.0868 2.64042H13.801C14.7411 2.65893 15.4414 2.85247 15.9023 3.22103C16.3723 3.58959 16.5105 4.29019 16.317 5.3223L15.3908 9.92575H13.4554L14.3401 5.52967C14.4322 5.06877 14.4046 4.74169 14.2572 4.54815C14.1098 4.35461 13.7919 4.25784 13.3033 4.25784L11.7689 4.24402L10.6353 9.92575H8.72754L10.7182 0Z" fill="#808080"/>
<path d="M18.3655 2.64014H22.0704C23.1578 2.64927 23.9458 2.96279 24.4343 3.58018C24.9229 4.19757 25.0841 5.04085 24.9182 6.11C24.8538 6.59854 24.7108 7.07769 24.4896 7.54771C24.2776 8.01774 23.9828 8.44159 23.6049 8.81954C23.144 9.29869 22.651 9.60282 22.1257 9.73193C21.6004 9.86104 21.0565 9.92547 20.4944 9.92547H18.8355L18.3102 12.5521H16.3887L18.3655 2.64014M19.983 4.21609L19.1535 8.36334C19.2088 8.37247 19.2641 8.37716 19.3194 8.37716C19.3838 8.37716 19.4485 8.37716 19.5129 8.37716C20.3977 8.38629 21.1351 8.29891 21.7248 8.1145C22.3145 7.92097 22.711 7.24828 22.9137 6.09618C23.0796 5.12849 22.9137 4.57082 22.416 4.42345C21.9275 4.27608 21.3148 4.20696 20.5774 4.21609C20.4668 4.22522 20.3609 4.22992 20.2594 4.22992C20.1674 4.22992 20.0706 4.22992 19.9691 4.22992L19.983 4.21609" fill="#808080"/>
</svg>
