<svg width="18" height="23" viewBox="0 0 18 23" fill="none" xmlns="http://www.w3.org/2000/svg">
<path d="M16.0102 22.5924H9.70734V1.22819C9.70734 0.940783 9.82104 0.665151 10.0234 0.461926C10.2258 0.258702 10.5004 0.144531 10.7866 0.144531H16.0102C16.2964 0.144531 16.5709 0.258702 16.7733 0.461926C16.9757 0.665151 17.0894 0.940783 17.0894 1.22819V21.5087C17.0894 21.651 17.0615 21.7919 17.0072 21.9234C16.953 22.0549 16.8735 22.1743 16.7733 22.275C16.6731 22.3756 16.5541 22.4554 16.4232 22.5099C16.2922 22.5643 16.1519 22.5924 16.0102 22.5924Z" fill="url(#paint0_linear_1977_20353)"/>
<path d="M12.4434 22.5924H4.94824V6.81443C4.94824 6.67215 4.97616 6.53126 5.0304 6.39982C5.08465 6.26837 5.16415 6.14895 5.26438 6.04836C5.3646 5.94778 5.48358 5.86801 5.61452 5.81361C5.74546 5.75921 5.88579 5.73125 6.02749 5.73132H11.3647C11.6508 5.73132 11.9252 5.84544 12.1275 6.04856C12.3298 6.25168 12.4434 6.52717 12.4434 6.81443V22.5924Z" fill="url(#paint1_linear_1977_20353)"/>
<path d="M7.79804 22.5924H1.38156C1.23986 22.5924 1.09954 22.5643 0.968632 22.5099C0.837722 22.4554 0.718783 22.3756 0.618609 22.275C0.518435 22.1743 0.438989 22.0549 0.384812 21.9234C0.330634 21.7919 0.302785 21.651 0.302857 21.5087V12.3951C0.303291 12.1081 0.417131 11.833 0.61938 11.6303C0.821629 11.4275 1.09575 11.3136 1.38156 11.3136H6.71715C7.00338 11.3136 7.27789 11.4278 7.48029 11.631C7.68269 11.8342 7.7964 12.1098 7.7964 12.3973L7.79804 22.5924Z" fill="url(#paint2_linear_1977_20353)"/>
<defs>
<linearGradient id="paint0_linear_1977_20353" x1="9.95707" y1="2.32007" x2="16.6362" y2="20.5963" gradientUnits="userSpaceOnUse">
<stop offset="0.01" stop-color="#E4A910"/>
<stop offset="0.32" stop-color="#DFA311"/>
<stop offset="0.63" stop-color="#D08C0C"/>
<stop offset="1" stop-color="#C17F06"/>
</linearGradient>
<linearGradient id="paint1_linear_1977_20353" x1="6.13405" y1="5.6567" x2="11.1201" y2="22.9734" gradientUnits="userSpaceOnUse">
<stop stop-color="#F6D54E"/>
<stop offset="0.31" stop-color="#EEC634"/>
<stop offset="0.57" stop-color="#E9B822"/>
<stop offset="1" stop-color="#E9B21C"/>
</linearGradient>
<linearGradient id="paint2_linear_1977_20353" x1="2.34769" y1="10.9893" x2="5.8494" y2="23.1533" gradientUnits="userSpaceOnUse">
<stop stop-color="#F8E386"/>
<stop offset="0.31" stop-color="#F6DC65"/>
<stop offset="0.57" stop-color="#F7DB5E"/>
<stop offset="1" stop-color="#FAD859"/>
</linearGradient>
</defs>
</svg>
