<svg width="40" height="41" viewBox="0 0 40 41" fill="none" xmlns="http://www.w3.org/2000/svg">
<g clip-path="url(#clip0_1_1197)">
<path d="M19.5263 0.913147C9.54043 0.913147 10.1638 5.24358 10.1638 5.24358L10.1749 9.73018H19.7042V11.0771H6.39005C6.39005 11.0771 0 10.3525 0 20.4283C0 30.5044 5.57737 30.1469 5.57737 30.1469H8.906V25.4712C8.906 25.4712 8.72649 19.8938 14.3944 19.8938H23.8459C23.8459 19.8938 29.156 19.9797 29.156 14.7618V6.13434C29.1559 6.13434 29.9624 0.913147 19.5263 0.913147ZM14.2718 3.93024C15.2178 3.92945 15.9854 4.69559 15.9862 5.64156C15.9862 5.64266 15.9862 5.64361 15.9862 5.64471C15.9869 6.59068 15.2208 7.35824 14.2748 7.35903C14.2737 7.35903 14.2728 7.35903 14.2717 7.35903C13.3257 7.35982 12.5582 6.59368 12.5574 5.64771C12.5574 5.64661 12.5574 5.64566 12.5574 5.64456C12.5566 4.69859 13.3227 3.93103 14.2687 3.93024C14.2698 3.93024 14.2707 3.93024 14.2718 3.93024Z" fill="url(#paint0_linear_1_1197)"/>
<path d="M19.8087 40.0452C29.7948 40.0452 29.1712 35.7147 29.1712 35.7147L29.1602 31.2283H19.6306V29.8813H32.945C32.945 29.8813 39.335 30.606 39.335 20.5299C39.335 10.4539 33.7577 10.8114 33.7577 10.8114H30.429V15.487C30.429 15.487 30.6085 21.0644 24.9406 21.0644H15.4892C15.4892 21.0644 10.179 20.9786 10.179 26.1966V34.8243C10.179 34.8241 9.37263 40.0452 19.8087 40.0452ZM25.0632 37.0284C24.1172 37.0292 23.3497 36.2631 23.3489 35.3171C23.3489 35.316 23.3489 35.315 23.3489 35.3139C23.3479 34.368 24.1141 33.6004 25.06 33.5994C25.0611 33.5994 25.0622 33.5994 25.0633 33.5994C26.0093 33.5986 26.7769 34.3648 26.7777 35.3108C26.7777 35.3117 26.7777 35.3128 26.7777 35.3139C26.7785 36.2599 26.0123 37.0275 25.0663 37.0283C25.0652 37.0283 25.0643 37.0283 25.0632 37.0284Z" fill="url(#paint1_linear_1_1197)"/>
</g>
<defs>
<linearGradient id="paint0_linear_1_1197" x1="3.68892" y1="4.52514" x2="23.1798" y2="23.8239" gradientUnits="userSpaceOnUse">
<stop stop-color="#387EB8"/>
<stop offset="1" stop-color="#366994"/>
</linearGradient>
<linearGradient id="paint1_linear_1_1197" x1="15.6484" y1="16.9274" x2="36.5844" y2="36.7141" gradientUnits="userSpaceOnUse">
<stop stop-color="#FFE052"/>
<stop offset="1" stop-color="#FFC331"/>
</linearGradient>
<clipPath id="clip0_1_1197">
<rect width="39.3361" height="39.1315" fill="white" transform="translate(0 0.913147)"/>
</clipPath>
</defs>
</svg>
