<svg width="316" height="214" viewBox="0 0 316 214" fill="none" xmlns="http://www.w3.org/2000/svg">
<path d="M314.613 155.116C313.882 156.395 312.603 157.126 311.141 157.126H261.255L231.835 105.96C230.922 104.499 229.094 103.95 227.632 104.864C227.084 105.047 226.719 105.595 226.536 105.96L194.192 162.242C194.01 162.608 193.644 162.79 193.279 162.79C188.528 162.608 172.447 158.587 146.316 145.979L225.44 8.74676C226.536 6.7367 229.094 6.1885 231.104 7.2849C231.653 7.65036 232.201 8.19856 232.566 8.74676L314.613 150.913C315.344 152.192 315.344 153.836 314.613 155.116Z" fill="#004050"/>
<path d="M137.363 153.654C132.246 150.365 126.764 147.441 121.282 144.883C157.829 121.676 168.61 73.2514 145.403 36.7049C122.196 0.158341 73.7719 -10.6229 37.2254 12.5842C0.678856 35.7912 -10.1024 84.2153 13.1047 120.762C26.0787 141.045 47.6411 154.385 71.5791 156.76L62.8079 171.927C61.5288 173.937 62.2597 176.678 64.4525 177.774C65.1835 178.14 65.9144 178.323 66.6453 178.323C76.5129 178.323 91.8624 179.602 114.339 193.672C139.738 209.753 157.281 212.859 162.58 213.407C163.676 213.59 164.59 213.042 165.138 212.128L185.97 175.947C186.518 175.033 186.152 173.754 185.239 173.206C185.056 173.023 184.691 173.023 184.508 173.023C177.929 172.292 161.118 168.638 137.363 153.654ZM79.2539 109.981C62.077 109.981 48.1893 96.0929 48.1893 78.9161C48.1893 61.7392 62.077 47.8515 79.2539 47.8515C96.4307 47.8515 110.318 61.7392 110.318 78.9161C110.318 96.0929 96.4307 109.981 79.2539 109.981Z" fill="#004050"/>
</svg>
