<svg width="55" height="50" viewBox="0 0 55 50" fill="none" xmlns="http://www.w3.org/2000/svg">
<path d="M27.1151 29.7884C29.7895 29.7884 31.9576 27.6203 31.9576 24.9458C31.9576 22.2713 29.7895 20.1032 27.1151 20.1032C24.4406 20.1032 22.2725 22.2713 22.2725 24.9458C22.2725 27.6203 24.4406 29.7884 27.1151 29.7884Z" fill="#00D8FF"/>
<path d="M27.1171 36.0461C20.3163 36.0461 14.3684 35.242 9.91681 33.7216C3.8 31.6307 -1.52588e-05 28.2684 -1.52588e-05 24.9453C-1.52588e-05 21.7438 3.51716 18.606 9.40857 16.5518C14.2391 14.8677 20.5277 13.9401 27.1166 13.9401H27.1175C33.5833 13.9401 39.7889 14.8509 44.5919 16.5045C50.6296 18.5828 54.2341 21.738 54.2341 24.9453C54.2341 28.2738 50.3018 31.6442 43.9712 33.7409C39.4839 35.227 33.4984 36.0461 27.1171 36.0461ZM27.1171 16.2569C20.8728 16.2569 14.6962 17.1619 10.1712 18.7392C4.74506 20.6312 2.31678 23.2193 2.31678 24.9453C2.31678 26.7418 4.92944 29.5687 10.6654 31.5288C14.8786 32.9686 20.5673 33.7293 27.1171 33.7293C33.2575 33.7293 38.9838 32.9522 43.2424 31.5414C49.2023 29.5668 51.9164 26.7384 51.9164 24.9453C51.9164 23.2743 49.3882 20.6061 43.8366 18.6953C39.2705 17.1228 33.3323 16.2569 27.1171 16.2569Z" fill="#00D8FF"/>
<path d="M16.1352 49.1015C15.1569 49.1015 14.2774 48.8916 13.5284 48.4586C10.755 46.8615 9.79397 42.2472 10.9577 36.1164C11.9114 31.0924 14.249 25.1816 17.5407 19.4722H17.5422C20.7717 13.8718 24.6605 8.95108 28.4924 5.61587C33.3094 1.42489 37.8426 -0.123014 40.6213 1.47992C43.5052 3.14221 44.4609 8.23239 43.1147 14.7638C42.1624 19.3897 39.8809 24.9833 36.6914 30.5146C33.2944 36.4065 29.6262 41.1564 26.0849 44.2532C22.4847 47.4002 18.9144 49.1015 16.1352 49.1015ZM19.5486 20.6296C16.4287 26.0393 14.1278 31.8415 13.2344 36.5479C12.1624 42.1941 13.1905 45.5902 14.6853 46.4517C16.2438 47.3519 19.9956 46.5005 24.5601 42.5088C27.9122 39.5786 31.413 35.0304 34.6845 29.3581C37.7538 24.0358 39.9417 18.6864 40.8452 14.2971C42.1122 8.14745 41.0175 4.38266 39.4643 3.48684C38.0163 2.65376 34.4432 3.50952 30.0133 7.3636C26.3696 10.5342 22.6531 15.2455 19.5486 20.6296Z" fill="#00D8FF"/>
<path d="M38.1148 49.1217C35.49 49.1217 32.1558 47.5347 28.6854 44.548C24.8087 41.2123 20.8552 36.2341 17.5533 30.5314C14.316 24.9402 11.9949 19.114 11.018 14.1247C9.79153 7.85725 10.7168 3.15658 13.4921 1.55076C16.3717 -0.116848 21.2596 1.59758 26.2456 6.02554C29.7801 9.16383 33.487 13.9335 36.6837 19.4562C40.0918 25.3403 42.3757 30.8905 43.2894 35.5057C44.5458 41.847 43.5385 46.8204 40.6628 48.4851C39.9252 48.9122 39.0666 49.1217 38.1148 49.1217ZM19.5582 29.3716C22.6869 34.775 26.5646 39.6668 30.1962 42.792C34.5522 46.5409 38.0086 47.3494 39.5024 46.4801C41.0571 45.5804 42.1943 41.9025 41.0166 35.9556C40.1516 31.587 37.9603 26.2835 34.6796 20.617C31.6031 15.3028 28.0613 10.7359 24.7073 7.75734C20.0134 3.58905 16.2037 2.65606 14.6529 3.55575C13.2069 4.39221 12.1643 7.91759 13.2918 13.6796C14.2205 18.4233 16.446 23.9956 19.5582 29.3716Z" fill="#00D8FF"/>
</svg>
