<svg width="49" height="44" viewBox="0 0 49 44" fill="none" xmlns="http://www.w3.org/2000/svg">
<path d="M44.6999 30.4936C47.3997 19.7875 40.8962 7.24596 29.8443 0.596161C34.7518 7.23266 36.7202 15.106 35.0045 22.1282C34.8848 22.74 34.6321 23.3651 34.3927 23.9768C32.2781 22.5139 22.4763 16.4759 10.6929 4.54614C10.3205 4.17375 17.0767 14.1484 24.5643 22.0085C21.0001 19.9072 11.052 12.7786 4.78785 6.99326C5.51933 8.23013 6.5035 9.45369 7.48767 10.8102C12.7676 17.5797 19.5238 25.6925 27.7562 31.9699C21.9842 35.5342 13.8848 35.7869 5.65233 31.9699C3.56429 31.1054 1.84864 29.8686 0 28.5253C3.44459 33.9382 8.72453 38.7394 15.1083 41.4392C22.729 44.7641 30.5226 44.7907 36.8399 40.9471C39.5397 39.5906 44.9393 38.1143 47.8918 43.7799C48.5036 45.3759 49.9799 37.9946 44.4472 31.2384C44.5802 30.9857 44.5802 30.733 44.6999 30.4936Z" fill="url(#paint0_linear_1_4121)"/>
<defs>
<linearGradient id="paint0_linear_1_4121" x1="24.2717" y1="0.596086" x2="24.2717" y2="43.996" gradientUnits="userSpaceOnUse">
<stop stop-color="#F88A36"/>
<stop offset="1" stop-color="#FD2020"/>
</linearGradient>
</defs>
</svg>
