<svg width="21" height="23" viewBox="0 0 21 23" fill="none" xmlns="http://www.w3.org/2000/svg">
<path d="M20.1825 15.6866V5.31913L11.2183 0.135376V4.11576L14.7301 6.15223C14.8687 6.2448 14.8687 6.42993 14.7301 6.47622L10.5714 8.88296C10.4328 8.97553 10.2941 8.92924 10.2017 8.88296L6.04304 6.47622C5.90442 6.42993 5.90442 6.19852 6.04304 6.15223L9.55482 4.11576V0.135376L0.54435 5.31913V15.6866L3.96371 13.6964V9.6235C3.96371 9.48465 4.14854 9.39208 4.24095 9.43836L8.39963 11.8451C8.53825 11.9377 8.58446 12.0302 8.58446 12.1691V16.9826C8.58446 17.1214 8.39963 17.214 8.30721 17.1677L4.79544 15.1312L1.37608 17.1214L10.3403 22.3515L19.3046 17.1677L15.8852 15.1775L12.3735 17.214C12.2349 17.3066 12.0962 17.214 12.0962 17.0289V12.2154C12.0962 12.0765 12.1886 11.9377 12.2811 11.8914L16.4397 9.48465C16.5784 9.39208 16.717 9.48465 16.717 9.66978V13.7427L20.1825 15.6866Z" fill="#4C4C4C"/>
<path d="M10.3403 22.3514L19.3046 17.1677L15.8852 15.1775L12.3735 17.214C12.2348 17.3065 12.0962 17.214 12.0962 17.0288V12.2153C12.0962 12.0765 12.1886 11.9376 12.2811 11.8914L16.4397 9.48461C16.5784 9.39204 16.717 9.48461 16.717 9.66974V13.7427L20.1363 15.7329V5.31909L10.3403 11.012V22.3514Z" fill="black"/>
<path d="M11.2183 0.135376V4.11576L14.7301 6.15223C14.8687 6.2448 14.8687 6.42993 14.7301 6.47622L10.5714 8.88296C10.4328 8.97553 10.2941 8.92924 10.2017 8.88296L6.04304 6.47622C5.90442 6.42993 5.90442 6.19852 6.04304 6.15223L9.55482 4.11576V0.135376L0.54435 5.31913L10.3403 11.012L20.1363 5.31913L11.2183 0.135376Z" fill="#808080"/>
<path d="M8.35342 17.214L4.84165 15.1775L1.42229 17.1677L10.3865 22.3514V11.012L0.54435 5.31909V15.6866L3.96371 13.6964V9.62346C3.96371 9.48461 4.14854 9.39204 4.24095 9.43832L8.39963 11.8451C8.53825 11.9376 8.58446 12.0302 8.58446 12.1691V16.9825C8.63066 17.1677 8.49204 17.3065 8.35342 17.214Z" fill="#4C4C4C"/>
</svg>
